solid OBJECT
  facet normal 0 -0 -1
    outer loop
      vertex 8 48 0
      vertex 8 23 0
      vertex 0 23 0
    endloop
  endfacet
  facet normal 0 -0 -1
    outer loop
      vertex 8 48 0
      vertex 0 23 0
      vertex 0 48 0
    endloop
  endfacet
  facet normal 0 -0 -1
    outer loop
      vertex 8 98 0
      vertex 8 73 0
      vertex 0 73 0
    endloop
  endfacet
  facet normal 0 -0 -1
    outer loop
      vertex 8 98 0
      vertex 0 73 0
      vertex 0 98 0
    endloop
  endfacet
  facet normal 0 -0 -1
    outer loop
      vertex 8 123 0
      vertex 8 98 0
      vertex 0 98 0
    endloop
  endfacet
  facet normal 0 -0 -1
    outer loop
      vertex 8 123 0
      vertex 0 98 0
      vertex 0 123 0
    endloop
  endfacet
  facet normal 0 -0 -1
    outer loop
      vertex 8 73 0
      vertex 8 48 0
      vertex 0 48 0
    endloop
  endfacet
  facet normal 0 -0 -1
    outer loop
      vertex 8 73 0
      vertex 0 48 0
      vertex 0 73 0
    endloop
  endfacet
  facet normal 1 -0 0
    outer loop
      vertex 8 48 100
      vertex 8 23 100
      vertex 8 23 66.666664123535156
    endloop
  endfacet
  facet normal 1 0 -0
    outer loop
      vertex 8 73 100
      vertex 8 48 100
      vertex 8 23 66.666664123535156
    endloop
  endfacet
  facet normal 1 -0 -0
    outer loop
      vertex 8 123 75
      vertex 8 98 100
      vertex 8 73 100
    endloop
  endfacet
  facet normal 1 0 0
    outer loop
      vertex 8 98 100
      vertex 8 123 75
      vertex 8 123 100
    endloop
  endfacet
  facet normal 1 0 0
    outer loop
      vertex 8 123 50
      vertex 8 123 75
      vertex 8 73 100
    endloop
  endfacet
  facet normal 1 -0 0
    outer loop
      vertex 8 23 33.333332061767578
      vertex 8 73 100
      vertex 8 23 66.666664123535156
    endloop
  endfacet
  facet normal 1 -0 -0
    outer loop
      vertex 8 48 0
      vertex 8 23 33.333332061767578
      vertex 8 23 0
    endloop
  endfacet
  facet normal 1 0 0
    outer loop
      vertex 8 23 33.333332061767578
      vertex 8 48 0
      vertex 8 73 0
    endloop
  endfacet
  facet normal 1 0 0
    outer loop
      vertex 8 73 100
      vertex 8 73 0
      vertex 8 123 50
    endloop
  endfacet
  facet normal 1 -0 0
    outer loop
      vertex 8 98 0
      vertex 8 123 25
      vertex 8 123 50
    endloop
  endfacet
  facet normal 1 0 -0
    outer loop
      vertex 8 123 25
      vertex 8 98 0
      vertex 8 123 0
    endloop
  endfacet
  facet normal 1 0 0
    outer loop
      vertex 8 98 0
      vertex 8 123 50
      vertex 8 73 0
    endloop
  endfacet
  facet normal 1 0 -0
    outer loop
      vertex 8 23 33.333332061767578
      vertex 8 73 0
      vertex 8 73 100
    endloop
  endfacet
  facet normal 0 0 1
    outer loop
      vertex 0 48 100
      vertex 0 23 100
      vertex 8 23 100
    endloop
  endfacet
  facet normal 0 0 1
    outer loop
      vertex 0 48 100
      vertex 8 23 100
      vertex 8 48 100
    endloop
  endfacet
  facet normal 0 0 1
    outer loop
      vertex 0 98 100
      vertex 0 73 100
      vertex 8 73 100
    endloop
  endfacet
  facet normal 0 0 1
    outer loop
      vertex 0 98 100
      vertex 8 73 100
      vertex 8 98 100
    endloop
  endfacet
  facet normal 0 0 1
    outer loop
      vertex 0 123 100
      vertex 0 98 100
      vertex 8 98 100
    endloop
  endfacet
  facet normal 0 0 1
    outer loop
      vertex 0 123 100
      vertex 8 98 100
      vertex 8 123 100
    endloop
  endfacet
  facet normal 0 0 1
    outer loop
      vertex 0 73 100
      vertex 0 48 100
      vertex 8 48 100
    endloop
  endfacet
  facet normal 0 0 1
    outer loop
      vertex 0 73 100
      vertex 8 48 100
      vertex 8 73 100
    endloop
  endfacet
  facet normal -1 0 0
    outer loop
      vertex 0 48 0
      vertex 0 23 0
      vertex 0 23 50
    endloop
  endfacet
  facet normal -1 0 -0
    outer loop
      vertex 0 73 0
      vertex 0 48 0
      vertex 0 23 50
    endloop
  endfacet
  facet normal -1 0 -0
    outer loop
      vertex 0 123 25
      vertex 0 98 0
      vertex 0 73 0
    endloop
  endfacet
  facet normal -1 0 0
    outer loop
      vertex 0 98 0
      vertex 0 123 25
      vertex 0 123 0
    endloop
  endfacet
  facet normal -1 -0 0
    outer loop
      vertex 0 123 50
      vertex 0 123 25
      vertex 0 73 0
    endloop
  endfacet
  facet normal -1 0 -0
    outer loop
      vertex 0 73 100
      vertex 0 73 0
      vertex 0 23 50
    endloop
  endfacet
  facet normal -1 -0 0
    outer loop
      vertex 0 48 100
      vertex 0 73 100
      vertex 0 23 50
    endloop
  endfacet
  facet normal -1 -0 0
    outer loop
      vertex 0 73 0
      vertex 0 73 100
      vertex 0 123 50
    endloop
  endfacet
  facet normal -1 0 0
    outer loop
      vertex 0 98 100
      vertex 0 123 75
      vertex 0 123 50
    endloop
  endfacet
  facet normal -1 -0 -0
    outer loop
      vertex 0 123 75
      vertex 0 98 100
      vertex 0 123 100
    endloop
  endfacet
  facet normal -1 0 0
    outer loop
      vertex 0 98 100
      vertex 0 123 50
      vertex 0 73 100
    endloop
  endfacet
  facet normal -1 -0 0
    outer loop
      vertex 0 23 100
      vertex 0 48 100
      vertex 0 23 50
    endloop
  endfacet
  facet normal 0 1 0
    outer loop
      vertex 0 123 25
      vertex 8 123 25
      vertex 8 123 0
    endloop
  endfacet
  facet normal -0 1 0
    outer loop
      vertex 0 123 25
      vertex 8 123 0
      vertex 0 123 0
    endloop
  endfacet
  facet normal 0 1 0
    outer loop
      vertex 0 123 75
      vertex 8 123 75
      vertex 8 123 50
    endloop
  endfacet
  facet normal -0 1 0
    outer loop
      vertex 0 123 75
      vertex 8 123 50
      vertex 0 123 50
    endloop
  endfacet
  facet normal 0 1 0
    outer loop
      vertex 0 123 100
      vertex 8 123 100
      vertex 8 123 75
    endloop
  endfacet
  facet normal -0 1 0
    outer loop
      vertex 0 123 100
      vertex 8 123 75
      vertex 0 123 75
    endloop
  endfacet
  facet normal 0 1 0
    outer loop
      vertex 0 123 50
      vertex 8 123 50
      vertex 8 123 25
    endloop
  endfacet
  facet normal -0 1 0
    outer loop
      vertex 0 123 50
      vertex 8 123 25
      vertex 0 123 25
    endloop
  endfacet
  facet normal 0 -0 -1
    outer loop
      vertex 4 13 0
      vertex 4 7.9000000953674316 0
      vertex 1.9600000381469727 7.9000000953674316 0
    endloop
  endfacet
  facet normal 0 -0 -1
    outer loop
      vertex 4 13 0
      vertex 1.9600000381469727 7.9000000953674316 0
      vertex 1.9600000381469727 13 0
    endloop
  endfacet
  facet normal 0 -0 -1
    outer loop
      vertex 1.9600000381469727 7.9000000953674316 0
      vertex 1.9600000381469727 5.3499999046325684 0
      vertex 0.93999999761581421 5.3499999046325684 0
    endloop
  endfacet
  facet normal 0 -0 -1
    outer loop
      vertex 1.9600000381469727 7.9000000953674316 0
      vertex 0.93999999761581421 5.3499999046325684 0
      vertex 0.93999999761581421 7.9000000953674316 0
    endloop
  endfacet
  facet normal 0 0 -1
    outer loop
      vertex 0.93999999761581421 5.3499999046325684 0
      vertex 1 3 0
      vertex 0 3 0
    endloop
  endfacet
  facet normal 0 -0 -1
    outer loop
      vertex 1.9600000381469727 5.3499999046325684 0
      vertex 1 3 0
      vertex 0.93999999761581421 5.3499999046325684 0
    endloop
  endfacet
  facet normal -0 0 -1
    outer loop
      vertex 0.93999999761581421 7.9000000953674316 0
      vertex 0.93999999761581421 5.3499999046325684 0
      vertex 0 3 0
    endloop
  endfacet
  facet normal -0 0 -1
    outer loop
      vertex 0 13 0
      vertex 0 23 0
      vertex 1.9600000381469727 13 0
    endloop
  endfacet
  facet normal 0 -0 -1
    outer loop
      vertex 1.9600000381469727 13 0
      vertex 1.9600000381469727 7.9000000953674316 0
      vertex 0.93999999761581421 7.9000000953674316 0
    endloop
  endfacet
  facet normal 0 -0 -1
    outer loop
      vertex 1.9600000381469727 13 0
      vertex 0.93999999761581421 7.9000000953674316 0
      vertex 0 13 0
    endloop
  endfacet
  facet normal 0 0 -1
    outer loop
      vertex 0.93999999761581421 7.9000000953674316 0
      vertex 0 3 0
      vertex 0 13 0
    endloop
  endfacet
  facet normal -0 0 -1
    outer loop
      vertex 1.9600000381469727 5.3499999046325684 0
      vertex 8 7.0414519309997559 0
      vertex 1 3 0
    endloop
  endfacet
  facet normal -0 0 -1
    outer loop
      vertex 1.9600000381469727 7.9000000953674316 0
      vertex 4 7.9000000953674316 0
      vertex 1.9600000381469727 5.3499999046325684 0
    endloop
  endfacet
  facet normal 0 -0 -1
    outer loop
      vertex 8 7.0414519309997559 0
      vertex 1.9600000381469727 5.3499999046325684 0
      vertex 4 7.9000000953674316 0
    endloop
  endfacet
  facet normal -0 -0 -1
    outer loop
      vertex 4 13 0
      vertex 8 15.020726203918457 0
      vertex 8 7.0414519309997559 0
    endloop
  endfacet
  facet normal 0 0 -1
    outer loop
      vertex 4 13 0
      vertex 8 7.0414519309997559 0
      vertex 4 7.9000000953674316 0
    endloop
  endfacet
  facet normal 0 -0 -1
    outer loop
      vertex 8 23 0
      vertex 4 13 0
      vertex 1.9600000381469727 13 0
    endloop
  endfacet
  facet normal 0 -0 -1
    outer loop
      vertex 8 23 0
      vertex 1.9600000381469727 13 0
      vertex 0 23 0
    endloop
  endfacet
  facet normal -0 0 -1
    outer loop
      vertex 4 13 0
      vertex 8 23 0
      vertex 8 15.020726203918457 0
    endloop
  endfacet
  facet normal 1 0 0
    outer loop
      vertex 8 23 33.333332061767578
      vertex 8 15.020726203918457 0
      vertex 8 23 0
    endloop
  endfacet
  facet normal 1 0 -0
    outer loop
      vertex 8 7.0414519309997559 28.571428298950195
      vertex 8 15.020726203918457 0
      vertex 8 23 33.333332061767578
    endloop
  endfacet
  facet normal 1 0 -0
    outer loop
      vertex 8 23 66.666664123535156
      vertex 8 7.0414519309997559 57.142856597900391
      vertex 8 7.0414519309997559 42.857143402099609
    endloop
  endfacet
  facet normal 1 0 -0
    outer loop
      vertex 8 23 66.666664123535156
      vertex 8 7.0414519309997559 42.857143402099609
      vertex 8 23 33.333332061767578
    endloop
  endfacet
  facet normal 1 -0 -0
    outer loop
      vertex 8 23 66.666664123535156
      vertex 8 23 100
      vertex 8 15.020726203918457 100
    endloop
  endfacet
  facet normal 1 0 0
    outer loop
      vertex 8 15.020726203918457 100
      vertex 8 7.0414519309997559 71.428573608398438
      vertex 8 23 66.666664123535156
    endloop
  endfacet
  facet normal 1 -0 -0
    outer loop
      vertex 8 15.020726203918457 0
      vertex 8 7.0414519309997559 14.285714149475098
      vertex 8 7.0414519309997559 0
    endloop
  endfacet
  facet normal 1 -0 -0
    outer loop
      vertex 8 15.020726203918457 0
      vertex 8 7.0414519309997559 28.571428298950195
      vertex 8 7.0414519309997559 14.285714149475098
    endloop
  endfacet
  facet normal 1 0 -0
    outer loop
      vertex 8 23 33.333332061767578
      vertex 8 7.0414519309997559 42.857143402099609
      vertex 8 7.0414519309997559 28.571428298950195
    endloop
  endfacet
  facet normal 1 0 -0
    outer loop
      vertex 8 23 66.666664123535156
      vertex 8 7.0414519309997559 71.428573608398438
      vertex 8 7.0414519309997559 57.142856597900391
    endloop
  endfacet
  facet normal 1 -0 0
    outer loop
      vertex 8 15.020726203918457 100
      vertex 8 7.0414519309997559 100
      vertex 8 7.0414519309997559 85.714286804199219
    endloop
  endfacet
  facet normal 1 0 -0
    outer loop
      vertex 8 15.020726203918457 100
      vertex 8 7.0414519309997559 85.714286804199219
      vertex 8 7.0414519309997559 71.428573608398438
    endloop
  endfacet
  facet normal -1 0 -0
    outer loop
      vertex 0 18 75
      vertex 0 18 50
      vertex 0 13 50
    endloop
  endfacet
  facet normal -1 0 -0
    outer loop
      vertex 0 18 75
      vertex 0 13 50
      vertex 0 13 75
    endloop
  endfacet
  facet normal -1 0 -0
    outer loop
      vertex 0 8 87.5
      vertex 0 8 75
      vertex 0 5.5 75
    endloop
  endfacet
  facet normal -1 0 -0
    outer loop
      vertex 0 8 87.5
      vertex 0 5.5 75
      vertex 0 5.5 87.5
    endloop
  endfacet
  facet normal -1 0 -0
    outer loop
      vertex 0 8 75
      vertex 0 8 62.5
      vertex 0 5.5 62.5
    endloop
  endfacet
  facet normal -1 0 -0
    outer loop
      vertex 0 8 75
      vertex 0 5.5 62.5
      vertex 0 5.5 75
    endloop
  endfacet
  facet normal -1 0 -0
    outer loop
      vertex 0 8 62.5
      vertex 0 8 50
      vertex 0 5.5 50
    endloop
  endfacet
  facet normal -1 0 -0
    outer loop
      vertex 0 8 62.5
      vertex 0 5.5 50
      vertex 0 5.5 62.5
    endloop
  endfacet
  facet normal -1 0 0
    outer loop
      vertex 0 8 62.5
      vertex 0 13 50
      vertex 0 8 50
    endloop
  endfacet
  facet normal -1 0 -0
    outer loop
      vertex 0 13 75
      vertex 0 8 62.5
      vertex 0 8 75
    endloop
  endfacet
  facet normal -1 -0 -0
    outer loop
      vertex 0 13 50
      vertex 0 8 62.5
      vertex 0 13 75
    endloop
  endfacet
  facet normal -1 0 0
    outer loop
      vertex 0 8 37.5
      vertex 0 13 25
      vertex 0 8 25
    endloop
  endfacet
  facet normal -1 0 -0
    outer loop
      vertex 0 13 50
      vertex 0 8 37.5
      vertex 0 8 50
    endloop
  endfacet
  facet normal -1 -0 -0
    outer loop
      vertex 0 13 25
      vertex 0 8 37.5
      vertex 0 13 50
    endloop
  endfacet
  facet normal -1 0 -0
    outer loop
      vertex 0 8 50
      vertex 0 8 37.5
      vertex 0 5.5 37.5
    endloop
  endfacet
  facet normal -1 0 -0
    outer loop
      vertex 0 8 50
      vertex 0 5.5 37.5
      vertex 0 5.5 50
    endloop
  endfacet
  facet normal -1 0 -0
    outer loop
      vertex 0 8 37.5
      vertex 0 8 25
      vertex 0 5.5 25
    endloop
  endfacet
  facet normal -1 0 -0
    outer loop
      vertex 0 8 37.5
      vertex 0 5.5 25
      vertex 0 5.5 37.5
    endloop
  endfacet
  facet normal -1 0 -0
    outer loop
      vertex 0 8 25
      vertex 0 8 12.5
      vertex 0 5.5 12.5
    endloop
  endfacet
  facet normal -1 0 -0
    outer loop
      vertex 0 8 25
      vertex 0 5.5 12.5
      vertex 0 5.5 25
    endloop
  endfacet
  facet normal -1 0 -0
    outer loop
      vertex 0 18 50
      vertex 0 18 25
      vertex 0 13 25
    endloop
  endfacet
  facet normal -1 0 -0
    outer loop
      vertex 0 18 50
      vertex 0 13 25
      vertex 0 13 50
    endloop
  endfacet
  facet normal -1 -0 0
    outer loop
      vertex 0 5.5 12.5
      vertex 0 3 0
      vertex 0 3 4.3478260040283203
    endloop
  endfacet
  facet normal -1 0 0
    outer loop
      vertex 0 5.5 12.5
      vertex 0 3 8.6956520080566406
      vertex 0 3 13.043478012084961
    endloop
  endfacet
  facet normal -1 -0 -0
    outer loop
      vertex 0 5.5 12.5
      vertex 0 3 13.043478012084961
      vertex 0 3 17.391304016113281
    endloop
  endfacet
  facet normal -1 -0 0
    outer loop
      vertex 0 3 8.6956520080566406
      vertex 0 5.5 12.5
      vertex 0 3 4.3478260040283203
    endloop
  endfacet
  facet normal -1 0 0
    outer loop
      vertex 0 5.5 25
      vertex 0 3 21.739130020141602
      vertex 0 3 26.086956024169922
    endloop
  endfacet
  facet normal -1 0 0
    outer loop
      vertex 0 5.5 25
      vertex 0 3 26.086956024169922
      vertex 0 3 30.434782028198242
    endloop
  endfacet
  facet normal -1 0 0
    outer loop
      vertex 0 5.5 37.5
      vertex 0 3 34.782608032226562
      vertex 0 3 39.130435943603516
    endloop
  endfacet
  facet normal -1 -0 -0
    outer loop
      vertex 0 5.5 37.5
      vertex 0 3 39.130435943603516
      vertex 0 3 43.478260040283203
    endloop
  endfacet
  facet normal -1 -0 0
    outer loop
      vertex 0 3 34.782608032226562
      vertex 0 5.5 37.5
      vertex 0 3 30.434782028198242
    endloop
  endfacet
  facet normal -1 -0 0
    outer loop
      vertex 0 3 21.739130020141602
      vertex 0 5.5 25
      vertex 0 3 17.391304016113281
    endloop
  endfacet
  facet normal -1 0 0
    outer loop
      vertex 0 5.5 50
      vertex 0 3 47.826087951660156
      vertex 0 3 52.173912048339844
    endloop
  endfacet
  facet normal -1 0 -0
    outer loop
      vertex 0 5.5 62.5
      vertex 0 3 56.521739959716797
      vertex 0 3 60.869564056396484
    endloop
  endfacet
  facet normal -1 0 0
    outer loop
      vertex 0 5.5 62.5
      vertex 0 3 60.869564056396484
      vertex 0 3 65.217391967773438
    endloop
  endfacet
  facet normal -1 0 0
    outer loop
      vertex 0 3 56.521739959716797
      vertex 0 5.5 50
      vertex 0 3 52.173912048339844
    endloop
  endfacet
  facet normal -1 0 -0
    outer loop
      vertex 0 5.5 75
      vertex 0 3 69.565216064453125
      vertex 0 3 73.913040161132812
    endloop
  endfacet
  facet normal -1 0 0
    outer loop
      vertex 0 5.5 75
      vertex 0 3 73.913040161132812
      vertex 0 3 78.260871887207031
    endloop
  endfacet
  facet normal -1 0 -0
    outer loop
      vertex 0 5.5 87.5
      vertex 0 3 82.608695983886719
      vertex 0 3 86.956520080566406
    endloop
  endfacet
  facet normal -1 0 0
    outer loop
      vertex 0 5.5 87.5
      vertex 0 3 86.956520080566406
      vertex 0 3 91.304344177246094
    endloop
  endfacet
  facet normal -1 0 0
    outer loop
      vertex 0 3 82.608695983886719
      vertex 0 5.5 75
      vertex 0 3 78.260871887207031
    endloop
  endfacet
  facet normal -1 0 0
    outer loop
      vertex 0 3 69.565216064453125
      vertex 0 5.5 62.5
      vertex 0 3 65.217391967773438
    endloop
  endfacet
  facet normal -1 -0 0
    outer loop
      vertex 0 3 47.826087951660156
      vertex 0 5.5 50
      vertex 0 3 43.478260040283203
    endloop
  endfacet
  facet normal -1 0 -0
    outer loop
      vertex 0 8 12.5
      vertex 0 3 0
      vertex 0 5.5 12.5
    endloop
  endfacet
  facet normal -1 -0 -0
    outer loop
      vertex 0 5.5 37.5
      vertex 0 3 43.478260040283203
      vertex 0 5.5 50
    endloop
  endfacet
  facet normal -1 -0 -0
    outer loop
      vertex 0 5.5 50
      vertex 0 3 56.521739959716797
      vertex 0 5.5 62.5
    endloop
  endfacet
  facet normal -1 -0 -0
    outer loop
      vertex 0 5.5 25
      vertex 0 3 30.434782028198242
      vertex 0 5.5 37.5
    endloop
  endfacet
  facet normal -1 0 -0
    outer loop
      vertex 0 13 25
      vertex 0 8 12.5
      vertex 0 8 25
    endloop
  endfacet
  facet normal -1 -0 -0
    outer loop
      vertex 0 13 0
      vertex 0 8 12.5
      vertex 0 13 25
    endloop
  endfacet
  facet normal -1 0 0
    outer loop
      vertex 0 23 0
      vertex 0 13 0
      vertex 0 18 25
    endloop
  endfacet
  facet normal -1 -0 0
    outer loop
      vertex 0 13 0
      vertex 0 13 25
      vertex 0 18 25
    endloop
  endfacet
  facet normal -1 -0 0
    outer loop
      vertex 0 18 25
      vertex 0 18 50
      vertex 0 23 50
    endloop
  endfacet
  facet normal -1 0 -0
    outer loop
      vertex 0 23 50
      vertex 0 23 0
      vertex 0 18 25
    endloop
  endfacet
  facet normal -1 0 0
    outer loop
      vertex 0 8 12.5
      vertex 0 13 0
      vertex 0 3 0
    endloop
  endfacet
  facet normal -1 -0 -0
    outer loop
      vertex 0 5.5 75
      vertex 0 3 82.608695983886719
      vertex 0 5.5 87.5
    endloop
  endfacet
  facet normal -1 0 0
    outer loop
      vertex 0 3 100
      vertex 0 5.5 87.5
      vertex 0 3 95.652175903320312
    endloop
  endfacet
  facet normal -1 -0 -0
    outer loop
      vertex 0 5.5 87.5
      vertex 0 3 91.304344177246094
      vertex 0 3 95.652175903320312
    endloop
  endfacet
  facet normal -1 0 0
    outer loop
      vertex 0 8 87.5
      vertex 0 5.5 87.5
      vertex 0 3 100
    endloop
  endfacet
  facet normal -1 0 -0
    outer loop
      vertex 0 5.5 75
      vertex 0 5.5 62.5
      vertex 0 3 69.565216064453125
    endloop
  endfacet
  facet normal -1 0 -0
    outer loop
      vertex 0 23 100
      vertex 0 23 50
      vertex 0 18 75
    endloop
  endfacet
  facet normal -1 0 0
    outer loop
      vertex 0 13 100
      vertex 0 18 75
      vertex 0 13 75
    endloop
  endfacet
  facet normal -1 -0 -0
    outer loop
      vertex 0 8 87.5
      vertex 0 13 100
      vertex 0 13 75
    endloop
  endfacet
  facet normal -1 0 -0
    outer loop
      vertex 0 23 100
      vertex 0 18 75
      vertex 0 13 100
    endloop
  endfacet
  facet normal -1 -0 0
    outer loop
      vertex 0 3 100
      vertex 0 13 100
      vertex 0 8 87.5
    endloop
  endfacet
  facet normal -1 -0 0
    outer loop
      vertex 0 8 75
      vertex 0 8 87.5
      vertex 0 13 75
    endloop
  endfacet
  facet normal -1 -0 0
    outer loop
      vertex 0 18 50
      vertex 0 18 75
      vertex 0 23 50
    endloop
  endfacet
  facet normal -1 -0 -0
    outer loop
      vertex 0 5.5 12.5
      vertex 0 3 17.391304016113281
      vertex 0 5.5 25
    endloop
  endfacet
  facet normal 0 -1 -0
    outer loop
      vertex 1 3 4.3478260040283203
      vertex 0 3 4.3478260040283203
      vertex 0 3 0
    endloop
  endfacet
  facet normal -0 -1 0
    outer loop
      vertex 1 3 4.3478260040283203
      vertex 0 3 0
      vertex 1 3 0
    endloop
  endfacet
  facet normal 0 -1 -0
    outer loop
      vertex 1 3 8.6956520080566406
      vertex 0 3 8.6956520080566406
      vertex 0 3 4.3478260040283203
    endloop
  endfacet
  facet normal -0 -1 0
    outer loop
      vertex 1 3 8.6956520080566406
      vertex 0 3 4.3478260040283203
      vertex 1 3 4.3478260040283203
    endloop
  endfacet
  facet normal 0 -1 -0
    outer loop
      vertex 1 3 17.391304016113281
      vertex 0 3 17.391304016113281
      vertex 0 3 13.043478012084961
    endloop
  endfacet
  facet normal -0 -1 0
    outer loop
      vertex 1 3 17.391304016113281
      vertex 0 3 13.043478012084961
      vertex 1 3 13.043478012084961
    endloop
  endfacet
  facet normal 0 -1 -0
    outer loop
      vertex 1 3 21.739130020141602
      vertex 0 3 21.739130020141602
      vertex 0 3 17.391304016113281
    endloop
  endfacet
  facet normal -0 -1 0
    outer loop
      vertex 1 3 21.739130020141602
      vertex 0 3 17.391304016113281
      vertex 1 3 17.391304016113281
    endloop
  endfacet
  facet normal 0 -1 -0
    outer loop
      vertex 1 3 13.043478012084961
      vertex 0 3 13.043478012084961
      vertex 0 3 8.6956520080566406
    endloop
  endfacet
  facet normal -0 -1 0
    outer loop
      vertex 1 3 13.043478012084961
      vertex 0 3 8.6956520080566406
      vertex 1 3 8.6956520080566406
    endloop
  endfacet
  facet normal 0 -1 -0
    outer loop
      vertex 1 3 30.434782028198242
      vertex 0 3 30.434782028198242
      vertex 0 3 26.086956024169922
    endloop
  endfacet
  facet normal -0 -1 0
    outer loop
      vertex 1 3 30.434782028198242
      vertex 0 3 26.086956024169922
      vertex 1 3 26.086956024169922
    endloop
  endfacet
  facet normal 0 -1 -0
    outer loop
      vertex 1 3 34.782608032226562
      vertex 0 3 34.782608032226562
      vertex 0 3 30.434782028198242
    endloop
  endfacet
  facet normal -0 -1 0
    outer loop
      vertex 1 3 34.782608032226562
      vertex 0 3 30.434782028198242
      vertex 1 3 30.434782028198242
    endloop
  endfacet
  facet normal 0 -1 -0
    outer loop
      vertex 1 3 43.478260040283203
      vertex 0 3 43.478260040283203
      vertex 0 3 39.130435943603516
    endloop
  endfacet
  facet normal -0 -1 0
    outer loop
      vertex 1 3 43.478260040283203
      vertex 0 3 39.130435943603516
      vertex 1 3 39.130435943603516
    endloop
  endfacet
  facet normal 0 -1 -0
    outer loop
      vertex 1 3 47.826087951660156
      vertex 0 3 47.826087951660156
      vertex 0 3 43.478260040283203
    endloop
  endfacet
  facet normal -0 -1 0
    outer loop
      vertex 1 3 47.826087951660156
      vertex 0 3 43.478260040283203
      vertex 1 3 43.478260040283203
    endloop
  endfacet
  facet normal 0 -1 -0
    outer loop
      vertex 1 3 39.130435943603516
      vertex 0 3 39.130435943603516
      vertex 0 3 34.782608032226562
    endloop
  endfacet
  facet normal -0 -1 0
    outer loop
      vertex 1 3 39.130435943603516
      vertex 0 3 34.782608032226562
      vertex 1 3 34.782608032226562
    endloop
  endfacet
  facet normal 0 -1 -0
    outer loop
      vertex 1 3 26.086956024169922
      vertex 0 3 26.086956024169922
      vertex 0 3 21.739130020141602
    endloop
  endfacet
  facet normal -0 -1 0
    outer loop
      vertex 1 3 26.086956024169922
      vertex 0 3 21.739130020141602
      vertex 1 3 21.739130020141602
    endloop
  endfacet
  facet normal 0 -1 -0
    outer loop
      vertex 1 3 56.521739959716797
      vertex 0 3 56.521739959716797
      vertex 0 3 52.173912048339844
    endloop
  endfacet
  facet normal -0 -1 0
    outer loop
      vertex 1 3 56.521739959716797
      vertex 0 3 52.173912048339844
      vertex 1 3 52.173912048339844
    endloop
  endfacet
  facet normal 0 -1 -0
    outer loop
      vertex 1 3 60.869564056396484
      vertex 0 3 60.869564056396484
      vertex 0 3 56.521739959716797
    endloop
  endfacet
  facet normal -0 -1 0
    outer loop
      vertex 1 3 60.869564056396484
      vertex 0 3 56.521739959716797
      vertex 1 3 56.521739959716797
    endloop
  endfacet
  facet normal 0 -1 -0
    outer loop
      vertex 1 3 69.565216064453125
      vertex 0 3 69.565216064453125
      vertex 0 3 65.217391967773438
    endloop
  endfacet
  facet normal -0 -1 0
    outer loop
      vertex 1 3 69.565216064453125
      vertex 0 3 65.217391967773438
      vertex 1 3 65.217391967773438
    endloop
  endfacet
  facet normal 0 -1 -0
    outer loop
      vertex 1 3 73.913040161132812
      vertex 0 3 73.913040161132812
      vertex 0 3 69.565216064453125
    endloop
  endfacet
  facet normal -0 -1 0
    outer loop
      vertex 1 3 73.913040161132812
      vertex 0 3 69.565216064453125
      vertex 1 3 69.565216064453125
    endloop
  endfacet
  facet normal 0 -1 -0
    outer loop
      vertex 1 3 65.217391967773438
      vertex 0 3 65.217391967773438
      vertex 0 3 60.869564056396484
    endloop
  endfacet
  facet normal -0 -1 0
    outer loop
      vertex 1 3 65.217391967773438
      vertex 0 3 60.869564056396484
      vertex 1 3 60.869564056396484
    endloop
  endfacet
  facet normal 0 -1 -0
    outer loop
      vertex 1 3 82.608695983886719
      vertex 0 3 82.608695983886719
      vertex 0 3 78.260871887207031
    endloop
  endfacet
  facet normal -0 -1 0
    outer loop
      vertex 1 3 82.608695983886719
      vertex 0 3 78.260871887207031
      vertex 1 3 78.260871887207031
    endloop
  endfacet
  facet normal 0 -1 -0
    outer loop
      vertex 1 3 86.956520080566406
      vertex 0 3 86.956520080566406
      vertex 0 3 82.608695983886719
    endloop
  endfacet
  facet normal -0 -1 0
    outer loop
      vertex 1 3 86.956520080566406
      vertex 0 3 82.608695983886719
      vertex 1 3 82.608695983886719
    endloop
  endfacet
  facet normal 0 -1 -0
    outer loop
      vertex 1 3 95.652175903320312
      vertex 0 3 95.652175903320312
      vertex 0 3 91.304344177246094
    endloop
  endfacet
  facet normal -0 -1 0
    outer loop
      vertex 1 3 95.652175903320312
      vertex 0 3 91.304344177246094
      vertex 1 3 91.304344177246094
    endloop
  endfacet
  facet normal 0 -1 -0
    outer loop
      vertex 1 3 100
      vertex 0 3 100
      vertex 0 3 95.652175903320312
    endloop
  endfacet
  facet normal -0 -1 0
    outer loop
      vertex 1 3 100
      vertex 0 3 95.652175903320312
      vertex 1 3 95.652175903320312
    endloop
  endfacet
  facet normal 0 -1 -0
    outer loop
      vertex 1 3 91.304344177246094
      vertex 0 3 91.304344177246094
      vertex 0 3 86.956520080566406
    endloop
  endfacet
  facet normal -0 -1 0
    outer loop
      vertex 1 3 91.304344177246094
      vertex 0 3 86.956520080566406
      vertex 1 3 86.956520080566406
    endloop
  endfacet
  facet normal 0 -1 -0
    outer loop
      vertex 1 3 78.260871887207031
      vertex 0 3 78.260871887207031
      vertex 0 3 73.913040161132812
    endloop
  endfacet
  facet normal -0 -1 0
    outer loop
      vertex 1 3 78.260871887207031
      vertex 0 3 73.913040161132812
      vertex 1 3 73.913040161132812
    endloop
  endfacet
  facet normal 0 -1 -0
    outer loop
      vertex 1 3 52.173912048339844
      vertex 0 3 52.173912048339844
      vertex 0 3 47.826087951660156
    endloop
  endfacet
  facet normal -0 -1 0
    outer loop
      vertex 1 3 52.173912048339844
      vertex 0 3 47.826087951660156
      vertex 1 3 47.826087951660156
    endloop
  endfacet
  facet normal 0.49999987159571774 -0.86602547791867301 0
    outer loop
      vertex 2.75 4.0103631019592285 20
      vertex 2.75 4.0103631019592285 10
      vertex 4.5 5.0207257270812988 10
    endloop
  endfacet
  facet normal 0.49999987159571774 -0.86602547791867301 0
    outer loop
      vertex 2.75 4.0103631019592285 20
      vertex 4.5 5.0207257270812988 10
      vertex 4.5 5.0207257270812988 20
    endloop
  endfacet
  facet normal 0.49999987159571774 -0.86602547791867301 0
    outer loop
      vertex 2.75 4.0103631019592285 40
      vertex 2.75 4.0103631019592285 30
      vertex 4.5 5.0207257270812988 30
    endloop
  endfacet
  facet normal 0.49999987159571774 -0.86602547791867301 0
    outer loop
      vertex 2.75 4.0103631019592285 40
      vertex 4.5 5.0207257270812988 30
      vertex 4.5 5.0207257270812988 40
    endloop
  endfacet
  facet normal 0.49999987159571774 -0.86602547791867301 0
    outer loop
      vertex 2.75 4.0103631019592285 30
      vertex 2.75 4.0103631019592285 20
      vertex 4.5 5.0207257270812988 20
    endloop
  endfacet
  facet normal 0.49999987159571774 -0.86602547791867301 0
    outer loop
      vertex 2.75 4.0103631019592285 30
      vertex 4.5 5.0207257270812988 20
      vertex 4.5 5.0207257270812988 30
    endloop
  endfacet
  facet normal 0.49999987159571774 -0.86602547791867301 0
    outer loop
      vertex 2.75 4.0103631019592285 60
      vertex 2.75 4.0103631019592285 50
      vertex 4.5 5.0207257270812988 50
    endloop
  endfacet
  facet normal 0.49999987159571774 -0.86602547791867301 0
    outer loop
      vertex 2.75 4.0103631019592285 60
      vertex 4.5 5.0207257270812988 50
      vertex 4.5 5.0207257270812988 60
    endloop
  endfacet
  facet normal 0.49999987159571774 -0.86602547791867301 0
    outer loop
      vertex 2.75 4.0103631019592285 50
      vertex 2.75 4.0103631019592285 40
      vertex 4.5 5.0207257270812988 40
    endloop
  endfacet
  facet normal 0.49999987159571774 -0.86602547791867301 0
    outer loop
      vertex 2.75 4.0103631019592285 50
      vertex 4.5 5.0207257270812988 40
      vertex 4.5 5.0207257270812988 50
    endloop
  endfacet
  facet normal 0.49999987159571774 -0.86602547791867301 0
    outer loop
      vertex 2.75 4.0103631019592285 80
      vertex 2.75 4.0103631019592285 70
      vertex 4.5 5.0207257270812988 70
    endloop
  endfacet
  facet normal 0.49999987159571774 -0.86602547791867301 0
    outer loop
      vertex 2.75 4.0103631019592285 80
      vertex 4.5 5.0207257270812988 70
      vertex 4.5 5.0207257270812988 80
    endloop
  endfacet
  facet normal 0.49999987159571774 -0.86602547791867301 0
    outer loop
      vertex 2.75 4.0103631019592285 70
      vertex 2.75 4.0103631019592285 60
      vertex 4.5 5.0207257270812988 60
    endloop
  endfacet
  facet normal 0.49999987159571774 -0.86602547791867301 0
    outer loop
      vertex 2.75 4.0103631019592285 70
      vertex 4.5 5.0207257270812988 60
      vertex 4.5 5.0207257270812988 70
    endloop
  endfacet
  facet normal 0.49999987159571774 -0.86602547791867301 0
    outer loop
      vertex 2.75 4.0103631019592285 90
      vertex 2.75 4.0103631019592285 80
      vertex 4.5 5.0207257270812988 80
    endloop
  endfacet
  facet normal 0.49999987159571774 -0.86602547791867301 0
    outer loop
      vertex 2.75 4.0103631019592285 90
      vertex 4.5 5.0207257270812988 80
      vertex 4.5 5.0207257270812988 90
    endloop
  endfacet
  facet normal 0.50000004857562863 -0.86602537573928462 0
    outer loop
      vertex 8 7.0414519309997559 14.285714149475098
      vertex 4.5 5.0207257270812988 10
      vertex 8 7.0414519309997559 0
    endloop
  endfacet
  facet normal 0.49999987159571729 -0.86602547791867235 4.1295312820683546e-08
    outer loop
      vertex 1 3 0
      vertex 4.5 5.0207257270812988 10
      vertex 2.75 4.0103631019592285 10
    endloop
  endfacet
  facet normal 0.50000004857562863 -0.86602537573928462 -0
    outer loop
      vertex 4.5 5.0207257270812988 20
      vertex 4.5 5.0207257270812988 10
      vertex 8 7.0414519309997559 14.285714149475098
    endloop
  endfacet
  facet normal 0.50000004857562852 -0.86602537573928462 0
    outer loop
      vertex 8 7.0414519309997559 42.857143402099609
      vertex 4.5 5.0207257270812988 40
      vertex 4.5 5.0207257270812988 30
    endloop
  endfacet
  facet normal 0.50000004857562863 -0.86602537573928462 0
    outer loop
      vertex 8 7.0414519309997559 42.857143402099609
      vertex 4.5 5.0207257270812988 30
      vertex 8 7.0414519309997559 28.571428298950195
    endloop
  endfacet
  facet normal 0.50000004857562863 -0.86602537573928462 -0
    outer loop
      vertex 8 7.0414519309997559 28.571428298950195
      vertex 4.5 5.0207257270812988 30
      vertex 4.5 5.0207257270812988 20
    endloop
  endfacet
  facet normal 0.50000004857562863 -0.86602537573928462 0
    outer loop
      vertex 8 7.0414519309997559 28.571428298950195
      vertex 4.5 5.0207257270812988 20
      vertex 8 7.0414519309997559 14.285714149475098
    endloop
  endfacet
  facet normal 0.50000004857562852 -0.86602537573928462 0
    outer loop
      vertex 2.75 4.0103631019592285 20
      vertex 1 3 17.391304016113281
      vertex 1 3 13.043478012084961
    endloop
  endfacet
  facet normal 0.50000004857562863 -0.86602537573928462 0
    outer loop
      vertex 2.75 4.0103631019592285 20
      vertex 1 3 13.043478012084961
      vertex 2.75 4.0103631019592285 10
    endloop
  endfacet
  facet normal 0.50000004857562852 -0.86602537573928462 2.4037032801385156e-17
    outer loop
      vertex 2.75 4.0103631019592285 40
      vertex 1 3 39.130435943603516
      vertex 1 3 34.782608032226562
    endloop
  endfacet
  facet normal 0.50000004857562863 -0.86602537573928462 0
    outer loop
      vertex 2.75 4.0103631019592285 40
      vertex 1 3 34.782608032226562
      vertex 2.75 4.0103631019592285 30
    endloop
  endfacet
  facet normal 0.50000004857562863 -0.86602537573928462 -0
    outer loop
      vertex 4.5 5.0207257270812988 50
      vertex 4.5 5.0207257270812988 40
      vertex 8 7.0414519309997559 42.857143402099609
    endloop
  endfacet
  facet normal 0.50000004857562852 -0.86602537573928462 1.2018516400692578e-17
    outer loop
      vertex 2.75 4.0103631019592285 30
      vertex 1 3 26.086956024169922
      vertex 1 3 21.739130020141602
    endloop
  endfacet
  facet normal 0.50000004857562863 -0.86602537573928462 0
    outer loop
      vertex 2.75 4.0103631019592285 30
      vertex 1 3 21.739130020141602
      vertex 2.75 4.0103631019592285 20
    endloop
  endfacet
  facet normal 0.50000000433065661 -0.86602540128413252 -2.0647654564002337e-08
    outer loop
      vertex 1 3 0
      vertex 8 7.0414519309997559 0
      vertex 4.5 5.0207257270812988 10
    endloop
  endfacet
  facet normal 0.50000004857562863 -0.86602537573928462 -0
    outer loop
      vertex 4.5 5.0207257270812988 60
      vertex 4.5 5.0207257270812988 50
      vertex 8 7.0414519309997559 57.142856597900391
    endloop
  endfacet
  facet normal 0.50000004857562863 -0.86602537573928462 0
    outer loop
      vertex 8 7.0414519309997559 42.857143402099609
      vertex 8 7.0414519309997559 57.142856597900391
      vertex 4.5 5.0207257270812988 50
    endloop
  endfacet
  facet normal 0.50000004857562852 -0.86602537573928462 0
    outer loop
      vertex 8 7.0414519309997559 71.428573608398438
      vertex 4.5 5.0207257270812988 70
      vertex 4.5 5.0207257270812988 60
    endloop
  endfacet
  facet normal 0.50000004857562863 -0.86602537573928462 0
    outer loop
      vertex 8 7.0414519309997559 71.428573608398438
      vertex 4.5 5.0207257270812988 60
      vertex 8 7.0414519309997559 57.142856597900391
    endloop
  endfacet
  facet normal 0.50000004857562852 -0.86602537573928462 0
    outer loop
      vertex 8 7.0414519309997559 85.714286804199219
      vertex 4.5 5.0207257270812988 80
      vertex 4.5 5.0207257270812988 70
    endloop
  endfacet
  facet normal 0.50000004857562852 -0.86602537573928451 0
    outer loop
      vertex 8 7.0414519309997559 85.714286804199219
      vertex 4.5 5.0207257270812988 70
      vertex 8 7.0414519309997559 71.428573608398438
    endloop
  endfacet
  facet normal 0.50000004857562863 -0.86602537573928462 0
    outer loop
      vertex 8 7.0414519309997559 85.714286804199219
      vertex 8 7.0414519309997559 100
      vertex 4.5 5.0207257270812988 90
    endloop
  endfacet
  facet normal 0.50000004857562863 -0.86602537573928462 0
    outer loop
      vertex 2.75 4.0103631019592285 60
      vertex 1 3 56.521739959716797
      vertex 1 3 52.173912048339844
    endloop
  endfacet
  facet normal 0.50000004857562863 -0.86602537573928462 0
    outer loop
      vertex 2.75 4.0103631019592285 60
      vertex 1 3 52.173912048339844
      vertex 2.75 4.0103631019592285 50
    endloop
  endfacet
  facet normal 0.50000004857562863 -0.86602537573928462 -0
    outer loop
      vertex 8 7.0414519309997559 85.714286804199219
      vertex 4.5 5.0207257270812988 90
      vertex 4.5 5.0207257270812988 80
    endloop
  endfacet
  facet normal 0.50000004857562863 -0.86602537573928462 0
    outer loop
      vertex 2.75 4.0103631019592285 80
      vertex 1 3 78.260871887207031
      vertex 1 3 73.913040161132812
    endloop
  endfacet
  facet normal 0.50000004857562863 -0.86602537573928462 0
    outer loop
      vertex 2.75 4.0103631019592285 80
      vertex 1 3 73.913040161132812
      vertex 2.75 4.0103631019592285 70
    endloop
  endfacet
  facet normal 0.50000004857562863 -0.86602537573928462 0
    outer loop
      vertex 2.75 4.0103631019592285 70
      vertex 1 3 65.217391967773438
      vertex 1 3 60.869564056396484
    endloop
  endfacet
  facet normal 0.50000004857562863 -0.86602537573928462 0
    outer loop
      vertex 2.75 4.0103631019592285 70
      vertex 1 3 60.869564056396484
      vertex 2.75 4.0103631019592285 60
    endloop
  endfacet
  facet normal 0.50000000433065661 -0.86602540128413252 2.0647654564002337e-08
    outer loop
      vertex 1 3 100
      vertex 4.5 5.0207257270812988 90
      vertex 8 7.0414519309997559 100
    endloop
  endfacet
  facet normal 0.50000004857562852 -0.86602537573928462 2.4037032801385156e-17
    outer loop
      vertex 2.75 4.0103631019592285 50
      vertex 1 3 47.826087951660156
      vertex 1 3 43.478260040283203
    endloop
  endfacet
  facet normal 0.50000004857562863 -0.86602537573928462 0
    outer loop
      vertex 2.75 4.0103631019592285 50
      vertex 1 3 43.478260040283203
      vertex 2.75 4.0103631019592285 40
    endloop
  endfacet
  facet normal 0.50000004857562863 -0.86602537573928462 0
    outer loop
      vertex 1 3 4.3478260040283203
      vertex 2.75 4.0103631019592285 10
      vertex 1 3 8.6956520080566406
    endloop
  endfacet
  facet normal 0.50000004857562863 -0.86602537573928462 -0
    outer loop
      vertex 1 3 8.6956520080566406
      vertex 2.75 4.0103631019592285 10
      vertex 1 3 13.043478012084961
    endloop
  endfacet
  facet normal 0.50000004857562863 -0.86602537573928462 -0
    outer loop
      vertex 1 3 17.391304016113281
      vertex 2.75 4.0103631019592285 20
      vertex 1 3 21.739130020141602
    endloop
  endfacet
  facet normal 0.50000004857562852 -0.86602537573928462 -2.4037032801385156e-17
    outer loop
      vertex 1 3 30.434782028198242
      vertex 2.75 4.0103631019592285 30
      vertex 1 3 34.782608032226562
    endloop
  endfacet
  facet normal 0.50000004857562863 -0.86602537573928462 -0
    outer loop
      vertex 1 3 47.826087951660156
      vertex 2.75 4.0103631019592285 50
      vertex 1 3 52.173912048339844
    endloop
  endfacet
  facet normal 0.50000004857562863 -0.86602537573928462 -0
    outer loop
      vertex 1 3 39.130435943603516
      vertex 2.75 4.0103631019592285 40
      vertex 1 3 43.478260040283203
    endloop
  endfacet
  facet normal 0.50000004857562863 -0.86602537573928462 -0
    outer loop
      vertex 1 3 26.086956024169922
      vertex 2.75 4.0103631019592285 30
      vertex 1 3 30.434782028198242
    endloop
  endfacet
  facet normal 0.50000004857562863 -0.86602537573928462 -0
    outer loop
      vertex 1 3 56.521739959716797
      vertex 2.75 4.0103631019592285 60
      vertex 1 3 60.869564056396484
    endloop
  endfacet
  facet normal 0.50000004857562863 -0.86602537573928462 -0
    outer loop
      vertex 2.75 4.0103631019592285 70
      vertex 1 3 73.913040161132812
      vertex 1 3 69.565216064453125
    endloop
  endfacet
  facet normal 0.50000004857562863 -0.86602537573928462 0
    outer loop
      vertex 1 3 69.565216064453125
      vertex 1 3 65.217391967773438
      vertex 2.75 4.0103631019592285 70
    endloop
  endfacet
  facet normal 0.50000004857562863 -0.86602537573928462 -0
    outer loop
      vertex 1 3 78.260871887207031
      vertex 2.75 4.0103631019592285 80
      vertex 1 3 82.608695983886719
    endloop
  endfacet
  facet normal 0.50000004857562863 -0.86602537573928462 0
    outer loop
      vertex 1 3 82.608695983886719
      vertex 2.75 4.0103631019592285 80
      vertex 1 3 86.956520080566406
    endloop
  endfacet
  facet normal 0.50000004857562863 -0.86602537573928462 -0
    outer loop
      vertex 2.75 4.0103631019592285 90
      vertex 1 3 91.304344177246094
      vertex 1 3 86.956520080566406
    endloop
  endfacet
  facet normal 0.50000004857562863 -0.86602537573928462 0
    outer loop
      vertex 2.75 4.0103631019592285 90
      vertex 1 3 100
      vertex 1 3 95.652175903320312
    endloop
  endfacet
  facet normal 0.50000004857562863 -0.86602537573928462 2.4037032801385156e-17
    outer loop
      vertex 2.75 4.0103631019592285 90
      vertex 1 3 95.652175903320312
      vertex 1 3 91.304344177246094
    endloop
  endfacet
  facet normal 0.50000004857562863 -0.86602537573928462 0
    outer loop
      vertex 2.75 4.0103631019592285 80
      vertex 2.75 4.0103631019592285 90
      vertex 1 3 86.956520080566406
    endloop
  endfacet
  facet normal 0.49999987159571729 -0.86602547791867235 -4.1295312820683546e-08
    outer loop
      vertex 4.5 5.0207257270812988 90
      vertex 1 3 100
      vertex 2.75 4.0103631019592285 90
    endloop
  endfacet
  facet normal 0.50000004857562852 -0.86602537573928462 1.2018516400692578e-17
    outer loop
      vertex 1 3 0
      vertex 2.75 4.0103631019592285 10
      vertex 1 3 4.3478260040283203
    endloop
  endfacet
  facet normal -0 0 1
    outer loop
      vertex 4 13 100
      vertex 1.9600000381469727 13 100
      vertex 1.9600000381469727 7.9000000953674316 100
    endloop
  endfacet
  facet normal 0 0 1
    outer loop
      vertex 4 13 100
      vertex 1.9600000381469727 7.9000000953674316 100
      vertex 4 7.9000000953674316 100
    endloop
  endfacet
  facet normal -0 0 1
    outer loop
      vertex 1.9600000381469727 7.9000000953674316 100
      vertex 0.93999999761581421 7.9000000953674316 100
      vertex 0.93999999761581421 5.3499999046325684 100
    endloop
  endfacet
  facet normal 0 0 1
    outer loop
      vertex 1.9600000381469727 7.9000000953674316 100
      vertex 0.93999999761581421 5.3499999046325684 100
      vertex 1.9600000381469727 5.3499999046325684 100
    endloop
  endfacet
  facet normal 0 0 1
    outer loop
      vertex 0.93999999761581421 5.3499999046325684 100
      vertex 0 3 100
      vertex 1 3 100
    endloop
  endfacet
  facet normal -0 0 1
    outer loop
      vertex 1.9600000381469727 5.3499999046325684 100
      vertex 0.93999999761581421 5.3499999046325684 100
      vertex 1 3 100
    endloop
  endfacet
  facet normal -0 0 1
    outer loop
      vertex 0.93999999761581421 7.9000000953674316 100
      vertex 0 3 100
      vertex 0.93999999761581421 5.3499999046325684 100
    endloop
  endfacet
  facet normal 0 0 1
    outer loop
      vertex 0 13 100
      vertex 1.9600000381469727 13 100
      vertex 0 23 100
    endloop
  endfacet
  facet normal -0 0 1
    outer loop
      vertex 1.9600000381469727 13 100
      vertex 0 13 100
      vertex 0.93999999761581421 7.9000000953674316 100
    endloop
  endfacet
  facet normal 0 0 1
    outer loop
      vertex 1.9600000381469727 13 100
      vertex 0.93999999761581421 7.9000000953674316 100
      vertex 1.9600000381469727 7.9000000953674316 100
    endloop
  endfacet
  facet normal -0 0 1
    outer loop
      vertex 0.93999999761581421 7.9000000953674316 100
      vertex 0 13 100
      vertex 0 3 100
    endloop
  endfacet
  facet normal 0 -0 1
    outer loop
      vertex 1.9600000381469727 5.3499999046325684 100
      vertex 1 3 100
      vertex 8 7.0414519309997559 100
    endloop
  endfacet
  facet normal 0 0 1
    outer loop
      vertex 1.9600000381469727 7.9000000953674316 100
      vertex 1.9600000381469727 5.3499999046325684 100
      vertex 4 7.9000000953674316 100
    endloop
  endfacet
  facet normal 0 -0 1
    outer loop
      vertex 8 7.0414519309997559 100
      vertex 4 7.9000000953674316 100
      vertex 1.9600000381469727 5.3499999046325684 100
    endloop
  endfacet
  facet normal 0 0 1
    outer loop
      vertex 4 13 100
      vertex 4 7.9000000953674316 100
      vertex 8 7.0414519309997559 100
    endloop
  endfacet
  facet normal 0 -0 1
    outer loop
      vertex 4 13 100
      vertex 8 7.0414519309997559 100
      vertex 8 15.020726203918457 100
    endloop
  endfacet
  facet normal -0 0 1
    outer loop
      vertex 8 23 100
      vertex 0 23 100
      vertex 1.9600000381469727 13 100
    endloop
  endfacet
  facet normal 0 0 1
    outer loop
      vertex 8 23 100
      vertex 1.9600000381469727 13 100
      vertex 4 13 100
    endloop
  endfacet
  facet normal -0 0 1
    outer loop
      vertex 4 13 100
      vertex 8 15.020726203918457 100
      vertex 8 23 100
    endloop
  endfacet
  facet normal 0 -0 -1
    outer loop
      vertex 1.9600000381469727 -2.3499999046325684 0
      vertex 1.9600000381469727 -4.9000000953674316 0
      vertex 0.93999999761581421 -4.9000000953674316 0
    endloop
  endfacet
  facet normal 0 -0 -1
    outer loop
      vertex 1.9600000381469727 -2.3499999046325684 0
      vertex 0.93999999761581421 -4.9000000953674316 0
      vertex 0.93999999761581421 -2.3499999046325684 0
    endloop
  endfacet
  facet normal 0 -0 -1
    outer loop
      vertex 4 -4.9000000953674316 0
      vertex 4 -10 0
      vertex 1.9600000381469727 -10 0
    endloop
  endfacet
  facet normal 0 -0 -1
    outer loop
      vertex 4 -4.9000000953674316 0
      vertex 1.9600000381469727 -10 0
      vertex 1.9600000381469727 -4.9000000953674316 0
    endloop
  endfacet
  facet normal -0 0 -1
    outer loop
      vertex 0 -10 0
      vertex 1.9600000381469727 -10 0
      vertex 0 -20 0
    endloop
  endfacet
  facet normal 0 -0 -1
    outer loop
      vertex 4 -10 0
      vertex 0 -20 0
      vertex 1.9600000381469727 -10 0
    endloop
  endfacet
  facet normal 0 0 -1
    outer loop
      vertex 0.93999999761581421 -4.9000000953674316 0
      vertex 1.9600000381469727 -10 0
      vertex 0 -10 0
    endloop
  endfacet
  facet normal 0 0 -1
    outer loop
      vertex 0.93999999761581421 -2.3499999046325684 0
      vertex 0.93999999761581421 -4.9000000953674316 0
      vertex 0 0 0
    endloop
  endfacet
  facet normal -0 0 -1
    outer loop
      vertex 0 -10 0
      vertex 0 0 0
      vertex 0.93999999761581421 -4.9000000953674316 0
    endloop
  endfacet
  facet normal -0 0 -1
    outer loop
      vertex 0 0 0
      vertex 1 0 0
      vertex 0.93999999761581421 -2.3499999046325684 0
    endloop
  endfacet
  facet normal 0 0 -1
    outer loop
      vertex 1 0 0
      vertex 1.9600000381469727 -2.3499999046325684 0
      vertex 0.93999999761581421 -2.3499999046325684 0
    endloop
  endfacet
  facet normal -0 0 -1
    outer loop
      vertex 1.9600000381469727 -10 0
      vertex 0.93999999761581421 -4.9000000953674316 0
      vertex 1.9600000381469727 -4.9000000953674316 0
    endloop
  endfacet
  facet normal 0 0 -1
    outer loop
      vertex 8 -12.020726203918457 0
      vertex 8 -20 0
      vertex 4 -10 0
    endloop
  endfacet
  facet normal 0 -0 -1
    outer loop
      vertex 8 -4.0414519309997559 0
      vertex 8 -12.020726203918457 0
      vertex 4 -10 0
    endloop
  endfacet
  facet normal 0 0 -1
    outer loop
      vertex 4 -4.9000000953674316 0
      vertex 1.9600000381469727 -4.9000000953674316 0
      vertex 1.9600000381469727 -2.3499999046325684 0
    endloop
  endfacet
  facet normal 0 0 -1
    outer loop
      vertex 1.9600000381469727 -2.3499999046325684 0
      vertex 8 -4.0414519309997559 0
      vertex 4 -4.9000000953674316 0
    endloop
  endfacet
  facet normal -0 0 -1
    outer loop
      vertex 4 -10 0
      vertex 4 -4.9000000953674316 0
      vertex 8 -4.0414519309997559 0
    endloop
  endfacet
  facet normal 0 0 -1
    outer loop
      vertex 1 0 0
      vertex 8 -4.0414519309997559 0
      vertex 1.9600000381469727 -2.3499999046325684 0
    endloop
  endfacet
  facet normal 0 0 -1
    outer loop
      vertex 8 -20 0
      vertex 0 -20 0
      vertex 4 -10 0
    endloop
  endfacet
  facet normal 0.50000000433065661 0.86602540128413275 -0
    outer loop
      vertex 8 -4.0414519309997559 0
      vertex 1 0 0
      vertex 1 0 4.3478260040283203
    endloop
  endfacet
  facet normal 0.50000000433065661 0.86602540128413275 -4.8074067020794239e-17
    outer loop
      vertex 8 -4.0414519309997559 0
      vertex 1 0 4.3478260040283203
      vertex 1 0 8.6956520080566406
    endloop
  endfacet
  facet normal 0.50000000433065661 0.86602540128413275 4.8074067020794239e-17
    outer loop
      vertex 8 -4.0414519309997559 25
      vertex 1 0 13.043478012084961
      vertex 1 0 17.391304016113281
    endloop
  endfacet
  facet normal 0.50000000433065661 0.86602540128413275 -0
    outer loop
      vertex 8 -4.0414519309997559 25
      vertex 1 0 21.739130020141602
      vertex 1 0 26.086956024169922
    endloop
  endfacet
  facet normal 0.50000000433065661 0.86602540128413275 0
    outer loop
      vertex 1 0 21.739130020141602
      vertex 8 -4.0414519309997559 25
      vertex 1 0 17.391304016113281
    endloop
  endfacet
  facet normal 0.50000000433065661 0.86602540128413275 0
    outer loop
      vertex 1 0 13.043478012084961
      vertex 8 -4.0414519309997559 0
      vertex 1 0 8.6956520080566406
    endloop
  endfacet
  facet normal 0.50000000433065661 0.86602540128413275 0
    outer loop
      vertex 8 -4.0414519309997559 25
      vertex 1 0 30.434782028198242
      vertex 1 0 34.782608032226562
    endloop
  endfacet
  facet normal 0.50000000433065661 0.86602540128413275 0
    outer loop
      vertex 8 -4.0414519309997559 25
      vertex 1 0 34.782608032226562
      vertex 1 0 39.130435943603516
    endloop
  endfacet
  facet normal 0.50000000433065661 0.86602540128413275 -0
    outer loop
      vertex 8 -4.0414519309997559 50
      vertex 1 0 43.478260040283203
      vertex 1 0 47.826087951660156
    endloop
  endfacet
  facet normal 0.50000000433065661 0.86602540128413275 -0
    outer loop
      vertex 8 -4.0414519309997559 50
      vertex 1 0 52.173912048339844
      vertex 1 0 56.521739959716797
    endloop
  endfacet
  facet normal 0.50000000433065661 0.86602540128413263 0
    outer loop
      vertex 1 0 52.173912048339844
      vertex 8 -4.0414519309997559 50
      vertex 1 0 47.826087951660156
    endloop
  endfacet
  facet normal 0.50000000433065661 0.86602540128413263 0
    outer loop
      vertex 1 0 43.478260040283203
      vertex 8 -4.0414519309997559 50
      vertex 1 0 39.130435943603516
    endloop
  endfacet
  facet normal 0.50000000433065661 0.86602540128413275 -0
    outer loop
      vertex 1 0 30.434782028198242
      vertex 8 -4.0414519309997559 25
      vertex 1 0 26.086956024169922
    endloop
  endfacet
  facet normal 0.50000000433065661 0.86602540128413275 0
    outer loop
      vertex 1 0 60.869564056396484
      vertex 1 0 65.217391967773438
      vertex 8 -4.0414519309997559 75
    endloop
  endfacet
  facet normal 0.50000000433065661 0.86602540128413263 0
    outer loop
      vertex 1 0 65.217391967773438
      vertex 1 0 69.565216064453125
      vertex 8 -4.0414519309997559 75
    endloop
  endfacet
  facet normal 0.50000000433065661 0.86602540128413263 0
    outer loop
      vertex 8 -4.0414519309997559 50
      vertex 1 0 56.521739959716797
      vertex 1 0 60.869564056396484
    endloop
  endfacet
  facet normal 0.50000000433065661 0.86602540128413275 0
    outer loop
      vertex 8 -4.0414519309997559 75
      vertex 8 -4.0414519309997559 50
      vertex 1 0 60.869564056396484
    endloop
  endfacet
  facet normal 0.50000000433065661 0.86602540128413263 0
    outer loop
      vertex 1 0 69.565216064453125
      vertex 1 0 73.913040161132812
      vertex 8 -4.0414519309997559 75
    endloop
  endfacet
  facet normal 0.50000000433065661 0.86602540128413275 0
    outer loop
      vertex 8 -4.0414519309997559 50
      vertex 8 -4.0414519309997559 25
      vertex 1 0 39.130435943603516
    endloop
  endfacet
  facet normal 0.50000000433065661 0.86602540128413275 0
    outer loop
      vertex 8 -4.0414519309997559 25
      vertex 8 -4.0414519309997559 0
      vertex 1 0 13.043478012084961
    endloop
  endfacet
  facet normal 0.50000000433065661 0.86602540128413263 0
    outer loop
      vertex 8 -4.0414519309997559 75
      vertex 1 0 78.260871887207031
      vertex 1 0 82.608695983886719
    endloop
  endfacet
  facet normal 0.50000000433065661 0.86602540128413263 0
    outer loop
      vertex 8 -4.0414519309997559 100
      vertex 1 0 86.956520080566406
      vertex 1 0 91.304344177246094
    endloop
  endfacet
  facet normal 0.50000000433065661 0.86602540128413263 0
    outer loop
      vertex 1 0 86.956520080566406
      vertex 8 -4.0414519309997559 75
      vertex 1 0 82.608695983886719
    endloop
  endfacet
  facet normal 0.50000000433065672 0.86602540128413275 -4.8074067020794239e-17
    outer loop
      vertex 1 0 95.652175903320312
      vertex 8 -4.0414519309997559 100
      vertex 1 0 91.304344177246094
    endloop
  endfacet
  facet normal 0.50000000433065661 0.86602540128413275 0
    outer loop
      vertex 8 -4.0414519309997559 75
      vertex 1 0 86.956520080566406
      vertex 8 -4.0414519309997559 100
    endloop
  endfacet
  facet normal 0.50000000433065661 0.86602540128413263 0
    outer loop
      vertex 1 0 95.652175903320312
      vertex 1 0 100
      vertex 8 -4.0414519309997559 100
    endloop
  endfacet
  facet normal 0.50000000433065661 0.86602540128413275 -0
    outer loop
      vertex 8 -4.0414519309997559 75
      vertex 1 0 73.913040161132812
      vertex 1 0 78.260871887207031
    endloop
  endfacet
  facet normal 0 1 0
    outer loop
      vertex 0 0 4.3478260040283203
      vertex 1 0 4.3478260040283203
      vertex 1 0 0
    endloop
  endfacet
  facet normal -0 1 0
    outer loop
      vertex 0 0 4.3478260040283203
      vertex 1 0 0
      vertex 0 0 0
    endloop
  endfacet
  facet normal 0 1 0
    outer loop
      vertex 0 0 8.6956520080566406
      vertex 1 0 8.6956520080566406
      vertex 1 0 4.3478260040283203
    endloop
  endfacet
  facet normal -0 1 0
    outer loop
      vertex 0 0 8.6956520080566406
      vertex 1 0 4.3478260040283203
      vertex 0 0 4.3478260040283203
    endloop
  endfacet
  facet normal 0 1 0
    outer loop
      vertex 0 0 17.391304016113281
      vertex 1 0 17.391304016113281
      vertex 1 0 13.043478012084961
    endloop
  endfacet
  facet normal -0 1 0
    outer loop
      vertex 0 0 17.391304016113281
      vertex 1 0 13.043478012084961
      vertex 0 0 13.043478012084961
    endloop
  endfacet
  facet normal 0 1 0
    outer loop
      vertex 0 0 21.739130020141602
      vertex 1 0 21.739130020141602
      vertex 1 0 17.391304016113281
    endloop
  endfacet
  facet normal -0 1 0
    outer loop
      vertex 0 0 21.739130020141602
      vertex 1 0 17.391304016113281
      vertex 0 0 17.391304016113281
    endloop
  endfacet
  facet normal 0 1 0
    outer loop
      vertex 0 0 13.043478012084961
      vertex 1 0 13.043478012084961
      vertex 1 0 8.6956520080566406
    endloop
  endfacet
  facet normal -0 1 0
    outer loop
      vertex 0 0 13.043478012084961
      vertex 1 0 8.6956520080566406
      vertex 0 0 8.6956520080566406
    endloop
  endfacet
  facet normal 0 1 0
    outer loop
      vertex 0 0 30.434782028198242
      vertex 1 0 30.434782028198242
      vertex 1 0 26.086956024169922
    endloop
  endfacet
  facet normal -0 1 0
    outer loop
      vertex 0 0 30.434782028198242
      vertex 1 0 26.086956024169922
      vertex 0 0 26.086956024169922
    endloop
  endfacet
  facet normal 0 1 0
    outer loop
      vertex 0 0 34.782608032226562
      vertex 1 0 34.782608032226562
      vertex 1 0 30.434782028198242
    endloop
  endfacet
  facet normal -0 1 0
    outer loop
      vertex 0 0 34.782608032226562
      vertex 1 0 30.434782028198242
      vertex 0 0 30.434782028198242
    endloop
  endfacet
  facet normal 0 1 0
    outer loop
      vertex 0 0 43.478260040283203
      vertex 1 0 43.478260040283203
      vertex 1 0 39.130435943603516
    endloop
  endfacet
  facet normal -0 1 0
    outer loop
      vertex 0 0 43.478260040283203
      vertex 1 0 39.130435943603516
      vertex 0 0 39.130435943603516
    endloop
  endfacet
  facet normal 0 1 0
    outer loop
      vertex 0 0 47.826087951660156
      vertex 1 0 47.826087951660156
      vertex 1 0 43.478260040283203
    endloop
  endfacet
  facet normal -0 1 0
    outer loop
      vertex 0 0 47.826087951660156
      vertex 1 0 43.478260040283203
      vertex 0 0 43.478260040283203
    endloop
  endfacet
  facet normal 0 1 0
    outer loop
      vertex 0 0 39.130435943603516
      vertex 1 0 39.130435943603516
      vertex 1 0 34.782608032226562
    endloop
  endfacet
  facet normal -0 1 0
    outer loop
      vertex 0 0 39.130435943603516
      vertex 1 0 34.782608032226562
      vertex 0 0 34.782608032226562
    endloop
  endfacet
  facet normal 0 1 0
    outer loop
      vertex 0 0 26.086956024169922
      vertex 1 0 26.086956024169922
      vertex 1 0 21.739130020141602
    endloop
  endfacet
  facet normal -0 1 0
    outer loop
      vertex 0 0 26.086956024169922
      vertex 1 0 21.739130020141602
      vertex 0 0 21.739130020141602
    endloop
  endfacet
  facet normal 0 1 0
    outer loop
      vertex 0 0 56.521739959716797
      vertex 1 0 56.521739959716797
      vertex 1 0 52.173912048339844
    endloop
  endfacet
  facet normal -0 1 0
    outer loop
      vertex 0 0 56.521739959716797
      vertex 1 0 52.173912048339844
      vertex 0 0 52.173912048339844
    endloop
  endfacet
  facet normal 0 1 0
    outer loop
      vertex 0 0 60.869564056396484
      vertex 1 0 60.869564056396484
      vertex 1 0 56.521739959716797
    endloop
  endfacet
  facet normal -0 1 0
    outer loop
      vertex 0 0 60.869564056396484
      vertex 1 0 56.521739959716797
      vertex 0 0 56.521739959716797
    endloop
  endfacet
  facet normal 0 1 0
    outer loop
      vertex 0 0 69.565216064453125
      vertex 1 0 69.565216064453125
      vertex 1 0 65.217391967773438
    endloop
  endfacet
  facet normal -0 1 0
    outer loop
      vertex 0 0 69.565216064453125
      vertex 1 0 65.217391967773438
      vertex 0 0 65.217391967773438
    endloop
  endfacet
  facet normal 0 1 0
    outer loop
      vertex 0 0 73.913040161132812
      vertex 1 0 73.913040161132812
      vertex 1 0 69.565216064453125
    endloop
  endfacet
  facet normal -0 1 0
    outer loop
      vertex 0 0 73.913040161132812
      vertex 1 0 69.565216064453125
      vertex 0 0 69.565216064453125
    endloop
  endfacet
  facet normal 0 1 0
    outer loop
      vertex 0 0 65.217391967773438
      vertex 1 0 65.217391967773438
      vertex 1 0 60.869564056396484
    endloop
  endfacet
  facet normal -0 1 0
    outer loop
      vertex 0 0 65.217391967773438
      vertex 1 0 60.869564056396484
      vertex 0 0 60.869564056396484
    endloop
  endfacet
  facet normal 0 1 0
    outer loop
      vertex 0 0 82.608695983886719
      vertex 1 0 82.608695983886719
      vertex 1 0 78.260871887207031
    endloop
  endfacet
  facet normal -0 1 0
    outer loop
      vertex 0 0 82.608695983886719
      vertex 1 0 78.260871887207031
      vertex 0 0 78.260871887207031
    endloop
  endfacet
  facet normal 0 1 0
    outer loop
      vertex 0 0 86.956520080566406
      vertex 1 0 86.956520080566406
      vertex 1 0 82.608695983886719
    endloop
  endfacet
  facet normal -0 1 0
    outer loop
      vertex 0 0 86.956520080566406
      vertex 1 0 82.608695983886719
      vertex 0 0 82.608695983886719
    endloop
  endfacet
  facet normal 0 1 0
    outer loop
      vertex 0 0 95.652175903320312
      vertex 1 0 95.652175903320312
      vertex 1 0 91.304344177246094
    endloop
  endfacet
  facet normal -0 1 0
    outer loop
      vertex 0 0 95.652175903320312
      vertex 1 0 91.304344177246094
      vertex 0 0 91.304344177246094
    endloop
  endfacet
  facet normal 0 1 0
    outer loop
      vertex 0 0 100
      vertex 1 0 100
      vertex 1 0 95.652175903320312
    endloop
  endfacet
  facet normal -0 1 0
    outer loop
      vertex 0 0 100
      vertex 1 0 95.652175903320312
      vertex 0 0 95.652175903320312
    endloop
  endfacet
  facet normal 0 1 0
    outer loop
      vertex 0 0 91.304344177246094
      vertex 1 0 91.304344177246094
      vertex 1 0 86.956520080566406
    endloop
  endfacet
  facet normal -0 1 0
    outer loop
      vertex 0 0 91.304344177246094
      vertex 1 0 86.956520080566406
      vertex 0 0 86.956520080566406
    endloop
  endfacet
  facet normal 0 1 0
    outer loop
      vertex 0 0 78.260871887207031
      vertex 1 0 78.260871887207031
      vertex 1 0 73.913040161132812
    endloop
  endfacet
  facet normal -0 1 0
    outer loop
      vertex 0 0 78.260871887207031
      vertex 1 0 73.913040161132812
      vertex 0 0 73.913040161132812
    endloop
  endfacet
  facet normal 0 1 0
    outer loop
      vertex 0 0 52.173912048339844
      vertex 1 0 52.173912048339844
      vertex 1 0 47.826087951660156
    endloop
  endfacet
  facet normal -0 1 0
    outer loop
      vertex 0 0 52.173912048339844
      vertex 1 0 47.826087951660156
      vertex 0 0 47.826087951660156
    endloop
  endfacet
  facet normal -1 0 -0
    outer loop
      vertex 0 -2.5 87.5
      vertex 0 -2.5 75
      vertex 0 -5 75
    endloop
  endfacet
  facet normal -1 0 -0
    outer loop
      vertex 0 -2.5 87.5
      vertex 0 -5 75
      vertex 0 -5 87.5
    endloop
  endfacet
  facet normal -1 -0 0
    outer loop
      vertex 0 -5 62.5
      vertex 0 -10 75
      vertex 0 -5 75
    endloop
  endfacet
  facet normal -1 -0 0
    outer loop
      vertex 0 -10 50
      vertex 0 -5 62.5
      vertex 0 -5 50
    endloop
  endfacet
  facet normal -1 0 0
    outer loop
      vertex 0 -10 75
      vertex 0 -5 62.5
      vertex 0 -10 50
    endloop
  endfacet
  facet normal -1 0 -0
    outer loop
      vertex 0 -2.5 75
      vertex 0 -2.5 62.5
      vertex 0 -5 62.5
    endloop
  endfacet
  facet normal -1 0 -0
    outer loop
      vertex 0 -2.5 75
      vertex 0 -5 62.5
      vertex 0 -5 75
    endloop
  endfacet
  facet normal -1 0 -0
    outer loop
      vertex 0 -2.5 62.5
      vertex 0 -2.5 50
      vertex 0 -5 50
    endloop
  endfacet
  facet normal -1 0 -0
    outer loop
      vertex 0 -2.5 62.5
      vertex 0 -5 50
      vertex 0 -5 62.5
    endloop
  endfacet
  facet normal -1 0 -0
    outer loop
      vertex 0 -10 75
      vertex 0 -10 50
      vertex 0 -15 50
    endloop
  endfacet
  facet normal -1 0 -0
    outer loop
      vertex 0 -10 75
      vertex 0 -15 50
      vertex 0 -15 75
    endloop
  endfacet
  facet normal -1 0 -0
    outer loop
      vertex 0 -10 50
      vertex 0 -10 25
      vertex 0 -15 25
    endloop
  endfacet
  facet normal -1 0 -0
    outer loop
      vertex 0 -10 50
      vertex 0 -15 25
      vertex 0 -15 50
    endloop
  endfacet
  facet normal -1 0 -0
    outer loop
      vertex 0 -2.5 50
      vertex 0 -2.5 37.5
      vertex 0 -5 37.5
    endloop
  endfacet
  facet normal -1 0 -0
    outer loop
      vertex 0 -2.5 50
      vertex 0 -5 37.5
      vertex 0 -5 50
    endloop
  endfacet
  facet normal -1 0 -0
    outer loop
      vertex 0 -2.5 37.5
      vertex 0 -2.5 25
      vertex 0 -5 25
    endloop
  endfacet
  facet normal -1 0 -0
    outer loop
      vertex 0 -2.5 37.5
      vertex 0 -5 25
      vertex 0 -5 37.5
    endloop
  endfacet
  facet normal -1 -0 0
    outer loop
      vertex 0 -5 37.5
      vertex 0 -10 50
      vertex 0 -5 50
    endloop
  endfacet
  facet normal -1 -0 0
    outer loop
      vertex 0 -10 25
      vertex 0 -5 37.5
      vertex 0 -5 25
    endloop
  endfacet
  facet normal -1 0 0
    outer loop
      vertex 0 -10 50
      vertex 0 -5 37.5
      vertex 0 -10 25
    endloop
  endfacet
  facet normal -1 0 -0
    outer loop
      vertex 0 -2.5 25
      vertex 0 -2.5 12.5
      vertex 0 -5 12.5
    endloop
  endfacet
  facet normal -1 0 -0
    outer loop
      vertex 0 -2.5 25
      vertex 0 -5 12.5
      vertex 0 -5 25
    endloop
  endfacet
  facet normal -1 0 0
    outer loop
      vertex 0 -15 25
      vertex 0 -10 0
      vertex 0 -20 0
    endloop
  endfacet
  facet normal -1 -0 0
    outer loop
      vertex 0 -15 25
      vertex 0 -20 50
      vertex 0 -15 50
    endloop
  endfacet
  facet normal -1 -0 0
    outer loop
      vertex 0 -20 0
      vertex 0 -20 50
      vertex 0 -15 25
    endloop
  endfacet
  facet normal -1 -0 0
    outer loop
      vertex 0 -10 0
      vertex 0 -15 25
      vertex 0 -10 25
    endloop
  endfacet
  facet normal -1 0 0
    outer loop
      vertex 0 -10 25
      vertex 0 -5 12.5
      vertex 0 -10 0
    endloop
  endfacet
  facet normal -1 0 0
    outer loop
      vertex 0 -2.5 12.5
      vertex 0 0 0
      vertex 0 -5 12.5
    endloop
  endfacet
  facet normal -1 -0 0
    outer loop
      vertex 0 -10 0
      vertex 0 -5 12.5
      vertex 0 0 0
    endloop
  endfacet
  facet normal -1 0 0
    outer loop
      vertex 0 -2.5 25
      vertex 0 0 21.739130020141602
      vertex 0 0 17.391304016113281
    endloop
  endfacet
  facet normal -1 0 0
    outer loop
      vertex 0 -2.5 25
      vertex 0 0 17.391304016113281
      vertex 0 -2.5 12.5
    endloop
  endfacet
  facet normal -1 -0 0
    outer loop
      vertex 0 -2.5 37.5
      vertex 0 0 34.782608032226562
      vertex 0 0 30.434782028198242
    endloop
  endfacet
  facet normal -1 0 0
    outer loop
      vertex 0 -2.5 37.5
      vertex 0 0 30.434782028198242
      vertex 0 -2.5 25
    endloop
  endfacet
  facet normal -1 0 0
    outer loop
      vertex 0 -2.5 50
      vertex 0 0 47.826087951660156
      vertex 0 0 43.478260040283203
    endloop
  endfacet
  facet normal -1 0 0
    outer loop
      vertex 0 -2.5 50
      vertex 0 0 43.478260040283203
      vertex 0 -2.5 37.5
    endloop
  endfacet
  facet normal -1 -0 -0
    outer loop
      vertex 0 -10 25
      vertex 0 -5 25
      vertex 0 -5 12.5
    endloop
  endfacet
  facet normal -1 -0 0
    outer loop
      vertex 0 -20 50
      vertex 0 -20 100
      vertex 0 -15 75
    endloop
  endfacet
  facet normal -1 -0 0
    outer loop
      vertex 0 -20 100
      vertex 0 -10 100
      vertex 0 -15 75
    endloop
  endfacet
  facet normal -1 0 0
    outer loop
      vertex 0 -10 75
      vertex 0 -15 75
      vertex 0 -10 100
    endloop
  endfacet
  facet normal -1 0 0
    outer loop
      vertex 0 -5 87.5
      vertex 0 -10 75
      vertex 0 -10 100
    endloop
  endfacet
  facet normal -1 0 0
    outer loop
      vertex 0 -15 50
      vertex 0 -20 50
      vertex 0 -15 75
    endloop
  endfacet
  facet normal -1 0 0
    outer loop
      vertex 0 -2.5 62.5
      vertex 0 0 56.521739959716797
      vertex 0 0 52.173912048339844
    endloop
  endfacet
  facet normal -1 0 0
    outer loop
      vertex 0 -2.5 62.5
      vertex 0 0 52.173912048339844
      vertex 0 -2.5 50
    endloop
  endfacet
  facet normal -1 -0 0
    outer loop
      vertex 0 -2.5 87.5
      vertex 0 0 82.608695983886719
      vertex 0 0 78.260871887207031
    endloop
  endfacet
  facet normal -1 0 0
    outer loop
      vertex 0 -2.5 87.5
      vertex 0 0 78.260871887207031
      vertex 0 -2.5 75
    endloop
  endfacet
  facet normal -1 0 -0
    outer loop
      vertex 0 0 100
      vertex 0 -5 87.5
      vertex 0 -10 100
    endloop
  endfacet
  facet normal -1 0 0
    outer loop
      vertex 0 -2.5 75
      vertex 0 0 69.565216064453125
      vertex 0 0 65.217391967773438
    endloop
  endfacet
  facet normal -1 0 0
    outer loop
      vertex 0 -2.5 75
      vertex 0 0 65.217391967773438
      vertex 0 -2.5 62.5
    endloop
  endfacet
  facet normal -1 -0 0
    outer loop
      vertex 0 -10 75
      vertex 0 -5 87.5
      vertex 0 -5 75
    endloop
  endfacet
  facet normal -1 0 0
    outer loop
      vertex 0 -2.5 87.5
      vertex 0 -5 87.5
      vertex 0 0 100
    endloop
  endfacet
  facet normal -1 -0 0
    outer loop
      vertex 0 -2.5 12.5
      vertex 0 0 4.3478260040283203
      vertex 0 0 0
    endloop
  endfacet
  facet normal -1 0 0
    outer loop
      vertex 0 -2.5 12.5
      vertex 0 0 8.6956520080566406
      vertex 0 0 4.3478260040283203
    endloop
  endfacet
  facet normal -1 -0 0
    outer loop
      vertex 0 -2.5 12.5
      vertex 0 0 17.391304016113281
      vertex 0 0 13.043478012084961
    endloop
  endfacet
  facet normal -1 -0 -0
    outer loop
      vertex 0 -2.5 12.5
      vertex 0 0 13.043478012084961
      vertex 0 0 8.6956520080566406
    endloop
  endfacet
  facet normal -1 0 0
    outer loop
      vertex 0 -2.5 25
      vertex 0 0 30.434782028198242
      vertex 0 0 26.086956024169922
    endloop
  endfacet
  facet normal -1 -0 0
    outer loop
      vertex 0 -2.5 37.5
      vertex 0 0 43.478260040283203
      vertex 0 0 39.130435943603516
    endloop
  endfacet
  facet normal -1 -0 -0
    outer loop
      vertex 0 -2.5 37.5
      vertex 0 0 39.130435943603516
      vertex 0 0 34.782608032226562
    endloop
  endfacet
  facet normal -1 -0 -0
    outer loop
      vertex 0 -2.5 25
      vertex 0 0 26.086956024169922
      vertex 0 0 21.739130020141602
    endloop
  endfacet
  facet normal -1 0 0
    outer loop
      vertex 0 -2.5 62.5
      vertex 0 0 60.869564056396484
      vertex 0 0 56.521739959716797
    endloop
  endfacet
  facet normal -1 0 0
    outer loop
      vertex 0 -2.5 75
      vertex 0 0 73.913040161132812
      vertex 0 0 69.565216064453125
    endloop
  endfacet
  facet normal -1 -0 -0
    outer loop
      vertex 0 -2.5 62.5
      vertex 0 0 65.217391967773438
      vertex 0 0 60.869564056396484
    endloop
  endfacet
  facet normal -1 0 0
    outer loop
      vertex 0 -2.5 87.5
      vertex 0 0 86.956520080566406
      vertex 0 0 82.608695983886719
    endloop
  endfacet
  facet normal -1 -0 0
    outer loop
      vertex 0 -2.5 87.5
      vertex 0 0 95.652175903320312
      vertex 0 0 91.304344177246094
    endloop
  endfacet
  facet normal -1 0 0
    outer loop
      vertex 0 -2.5 87.5
      vertex 0 0 100
      vertex 0 0 95.652175903320312
    endloop
  endfacet
  facet normal -1 -0 -0
    outer loop
      vertex 0 -2.5 87.5
      vertex 0 0 91.304344177246094
      vertex 0 0 86.956520080566406
    endloop
  endfacet
  facet normal -1 -0 -0
    outer loop
      vertex 0 -2.5 75
      vertex 0 0 78.260871887207031
      vertex 0 0 73.913040161132812
    endloop
  endfacet
  facet normal -1 -0 -0
    outer loop
      vertex 0 -2.5 50
      vertex 0 0 52.173912048339844
      vertex 0 0 47.826087951660156
    endloop
  endfacet
  facet normal 1 0 -0
    outer loop
      vertex 8 -12.020726203918457 0
      vertex 8 -4.0414519309997559 0
      vertex 8 -4.0414519309997559 25
    endloop
  endfacet
  facet normal 1 0 -0
    outer loop
      vertex 8 -20 66.666664123535156
      vertex 8 -4.0414519309997559 50
      vertex 8 -4.0414519309997559 75
    endloop
  endfacet
  facet normal 1 0 0
    outer loop
      vertex 8 -12.020726203918457 100
      vertex 8 -4.0414519309997559 75
      vertex 8 -4.0414519309997559 100
    endloop
  endfacet
  facet normal 1 0 -0
    outer loop
      vertex 8 -4.0414519309997559 50
      vertex 8 -20 33.333332061767578
      vertex 8 -4.0414519309997559 25
    endloop
  endfacet
  facet normal 1 0 0
    outer loop
      vertex 8 -20 33.333332061767578
      vertex 8 -20 0
      vertex 8 -12.020726203918457 0
    endloop
  endfacet
  facet normal 1 -0 0
    outer loop
      vertex 8 -20 33.333332061767578
      vertex 8 -4.0414519309997559 50
      vertex 8 -20 66.666664123535156
    endloop
  endfacet
  facet normal 1 0 0
    outer loop
      vertex 8 -20 100
      vertex 8 -20 66.666664123535156
      vertex 8 -12.020726203918457 100
    endloop
  endfacet
  facet normal 1 -0 0
    outer loop
      vertex 8 -20 66.666664123535156
      vertex 8 -4.0414519309997559 75
      vertex 8 -12.020726203918457 100
    endloop
  endfacet
  facet normal 1 -0 0
    outer loop
      vertex 8 -12.020726203918457 0
      vertex 8 -4.0414519309997559 25
      vertex 8 -20 33.333332061767578
    endloop
  endfacet
  facet normal -0 0 1
    outer loop
      vertex 1.9600000381469727 -2.3499999046325684 100
      vertex 0.93999999761581421 -2.3499999046325684 100
      vertex 0.93999999761581421 -4.9000000953674316 100
    endloop
  endfacet
  facet normal 0 0 1
    outer loop
      vertex 1.9600000381469727 -2.3499999046325684 100
      vertex 0.93999999761581421 -4.9000000953674316 100
      vertex 1.9600000381469727 -4.9000000953674316 100
    endloop
  endfacet
  facet normal -0 0 1
    outer loop
      vertex 4 -4.9000000953674316 100
      vertex 1.9600000381469727 -4.9000000953674316 100
      vertex 1.9600000381469727 -10 100
    endloop
  endfacet
  facet normal 0 0 1
    outer loop
      vertex 4 -4.9000000953674316 100
      vertex 1.9600000381469727 -10 100
      vertex 4 -10 100
    endloop
  endfacet
  facet normal 0 0 1
    outer loop
      vertex 0 -10 100
      vertex 0 -20 100
      vertex 1.9600000381469727 -10 100
    endloop
  endfacet
  facet normal -0 0 1
    outer loop
      vertex 4 -10 100
      vertex 1.9600000381469727 -10 100
      vertex 0 -20 100
    endloop
  endfacet
  facet normal 0 0 1
    outer loop
      vertex 0.93999999761581421 -4.9000000953674316 100
      vertex 0 -10 100
      vertex 1.9600000381469727 -10 100
    endloop
  endfacet
  facet normal 0 0 1
    outer loop
      vertex 0.93999999761581421 -2.3499999046325684 100
      vertex 0 0 100
      vertex 0.93999999761581421 -4.9000000953674316 100
    endloop
  endfacet
  facet normal -0 0 1
    outer loop
      vertex 0 -10 100
      vertex 0.93999999761581421 -4.9000000953674316 100
      vertex 0 0 100
    endloop
  endfacet
  facet normal 0 0 1
    outer loop
      vertex 0 0 100
      vertex 0.93999999761581421 -2.3499999046325684 100
      vertex 1 0 100
    endloop
  endfacet
  facet normal 0 0 1
    outer loop
      vertex 1 0 100
      vertex 0.93999999761581421 -2.3499999046325684 100
      vertex 1.9600000381469727 -2.3499999046325684 100
    endloop
  endfacet
  facet normal -0 -0 1
    outer loop
      vertex 1.9600000381469727 -10 100
      vertex 1.9600000381469727 -4.9000000953674316 100
      vertex 0.93999999761581421 -4.9000000953674316 100
    endloop
  endfacet
  facet normal -0 0 1
    outer loop
      vertex 8 -12.020726203918457 100
      vertex 4 -10 100
      vertex 8 -20 100
    endloop
  endfacet
  facet normal 0 -0 1
    outer loop
      vertex 8 -4.0414519309997559 100
      vertex 4 -10 100
      vertex 8 -12.020726203918457 100
    endloop
  endfacet
  facet normal -0 -0 1
    outer loop
      vertex 4 -4.9000000953674316 100
      vertex 1.9600000381469727 -2.3499999046325684 100
      vertex 1.9600000381469727 -4.9000000953674316 100
    endloop
  endfacet
  facet normal 0 0 1
    outer loop
      vertex 1.9600000381469727 -2.3499999046325684 100
      vertex 4 -4.9000000953674316 100
      vertex 8 -4.0414519309997559 100
    endloop
  endfacet
  facet normal -0 0 1
    outer loop
      vertex 4 -10 100
      vertex 8 -4.0414519309997559 100
      vertex 4 -4.9000000953674316 100
    endloop
  endfacet
  facet normal 0 0 1
    outer loop
      vertex 1 0 100
      vertex 1.9600000381469727 -2.3499999046325684 100
      vertex 8 -4.0414519309997559 100
    endloop
  endfacet
  facet normal -0 -0 1
    outer loop
      vertex 8 -20 100
      vertex 4 -10 100
      vertex 0 -20 100
    endloop
  endfacet
  facet normal -0 0 -1
    outer loop
      vertex 0 -45 0
      vertex 0 -20 0
      vertex 8 -20 0
    endloop
  endfacet
  facet normal -0 0 -1
    outer loop
      vertex 0 -45 0
      vertex 8 -20 0
      vertex 8 -45 0
    endloop
  endfacet
  facet normal -0 0 -1
    outer loop
      vertex 0 -95 0
      vertex 0 -70 0
      vertex 8 -70 0
    endloop
  endfacet
  facet normal -0 0 -1
    outer loop
      vertex 0 -95 0
      vertex 8 -70 0
      vertex 8 -95 0
    endloop
  endfacet
  facet normal -0 0 -1
    outer loop
      vertex 0 -120 0
      vertex 0 -95 0
      vertex 8 -95 0
    endloop
  endfacet
  facet normal -0 0 -1
    outer loop
      vertex 0 -120 0
      vertex 8 -95 0
      vertex 8 -120 0
    endloop
  endfacet
  facet normal -0 0 -1
    outer loop
      vertex 0 -70 0
      vertex 0 -45 0
      vertex 8 -45 0
    endloop
  endfacet
  facet normal -0 0 -1
    outer loop
      vertex 0 -70 0
      vertex 8 -45 0
      vertex 8 -70 0
    endloop
  endfacet
  facet normal -1 -0 -0
    outer loop
      vertex 0 -45 100
      vertex 0 -20 100
      vertex 0 -20 50
    endloop
  endfacet
  facet normal -1 0 0
    outer loop
      vertex 0 -70 100
      vertex 0 -45 100
      vertex 0 -20 50
    endloop
  endfacet
  facet normal -1 -0 0
    outer loop
      vertex 0 -120 75
      vertex 0 -95 100
      vertex 0 -70 100
    endloop
  endfacet
  facet normal -1 0 -0
    outer loop
      vertex 0 -95 100
      vertex 0 -120 75
      vertex 0 -120 100
    endloop
  endfacet
  facet normal -1 0 -0
    outer loop
      vertex 0 -120 50
      vertex 0 -120 75
      vertex 0 -70 100
    endloop
  endfacet
  facet normal -1 -0 0
    outer loop
      vertex 0 -70 0
      vertex 0 -70 100
      vertex 0 -20 50
    endloop
  endfacet
  facet normal -1 0 -0
    outer loop
      vertex 0 -45 0
      vertex 0 -70 0
      vertex 0 -20 50
    endloop
  endfacet
  facet normal -1 0 -0
    outer loop
      vertex 0 -70 100
      vertex 0 -70 0
      vertex 0 -120 50
    endloop
  endfacet
  facet normal -1 -0 -0
    outer loop
      vertex 0 -95 0
      vertex 0 -120 25
      vertex 0 -120 50
    endloop
  endfacet
  facet normal -1 0 0
    outer loop
      vertex 0 -120 25
      vertex 0 -95 0
      vertex 0 -120 0
    endloop
  endfacet
  facet normal -1 0 -0
    outer loop
      vertex 0 -95 0
      vertex 0 -120 50
      vertex 0 -70 0
    endloop
  endfacet
  facet normal -1 0 0
    outer loop
      vertex 0 -20 0
      vertex 0 -45 0
      vertex 0 -20 50
    endloop
  endfacet
  facet normal -0 -0 1
    outer loop
      vertex 8 -45 100
      vertex 8 -20 100
      vertex 0 -20 100
    endloop
  endfacet
  facet normal -0 -0 1
    outer loop
      vertex 8 -45 100
      vertex 0 -20 100
      vertex 0 -45 100
    endloop
  endfacet
  facet normal -0 -0 1
    outer loop
      vertex 8 -95 100
      vertex 8 -70 100
      vertex 0 -70 100
    endloop
  endfacet
  facet normal -0 -0 1
    outer loop
      vertex 8 -95 100
      vertex 0 -70 100
      vertex 0 -95 100
    endloop
  endfacet
  facet normal -0 -0 1
    outer loop
      vertex 8 -120 100
      vertex 8 -95 100
      vertex 0 -95 100
    endloop
  endfacet
  facet normal -0 -0 1
    outer loop
      vertex 8 -120 100
      vertex 0 -95 100
      vertex 0 -120 100
    endloop
  endfacet
  facet normal -0 -0 1
    outer loop
      vertex 8 -70 100
      vertex 8 -45 100
      vertex 0 -45 100
    endloop
  endfacet
  facet normal -0 -0 1
    outer loop
      vertex 8 -70 100
      vertex 0 -45 100
      vertex 0 -70 100
    endloop
  endfacet
  facet normal 1 0 -0
    outer loop
      vertex 8 -45 0
      vertex 8 -20 0
      vertex 8 -20 33.333332061767578
    endloop
  endfacet
  facet normal 1 0 0
    outer loop
      vertex 8 -70 0
      vertex 8 -45 0
      vertex 8 -20 33.333332061767578
    endloop
  endfacet
  facet normal 1 0 0
    outer loop
      vertex 8 -120 25
      vertex 8 -95 0
      vertex 8 -70 0
    endloop
  endfacet
  facet normal 1 0 -0
    outer loop
      vertex 8 -95 0
      vertex 8 -120 25
      vertex 8 -120 0
    endloop
  endfacet
  facet normal 1 -0 -0
    outer loop
      vertex 8 -120 50
      vertex 8 -120 25
      vertex 8 -70 0
    endloop
  endfacet
  facet normal 1 0 0
    outer loop
      vertex 8 -70 100
      vertex 8 -70 0
      vertex 8 -20 33.333332061767578
    endloop
  endfacet
  facet normal 1 -0 0
    outer loop
      vertex 8 -70 100
      vertex 8 -20 33.333332061767578
      vertex 8 -20 66.666664123535156
    endloop
  endfacet
  facet normal 1 0 0
    outer loop
      vertex 8 -45 100
      vertex 8 -20 66.666664123535156
      vertex 8 -20 100
    endloop
  endfacet
  facet normal 1 -0 -0
    outer loop
      vertex 8 -20 66.666664123535156
      vertex 8 -45 100
      vertex 8 -70 100
    endloop
  endfacet
  facet normal 1 -0 -0
    outer loop
      vertex 8 -70 0
      vertex 8 -70 100
      vertex 8 -120 50
    endloop
  endfacet
  facet normal 1 0 -0
    outer loop
      vertex 8 -95 100
      vertex 8 -120 75
      vertex 8 -120 50
    endloop
  endfacet
  facet normal 1 -0 0
    outer loop
      vertex 8 -120 75
      vertex 8 -95 100
      vertex 8 -120 100
    endloop
  endfacet
  facet normal 1 0 -0
    outer loop
      vertex 8 -95 100
      vertex 8 -120 50
      vertex 8 -70 100
    endloop
  endfacet
  facet normal 0 -1 -0
    outer loop
      vertex 8 -120 25
      vertex 0 -120 25
      vertex 0 -120 0
    endloop
  endfacet
  facet normal -0 -1 0
    outer loop
      vertex 8 -120 25
      vertex 0 -120 0
      vertex 8 -120 0
    endloop
  endfacet
  facet normal 0 -1 -0
    outer loop
      vertex 8 -120 75
      vertex 0 -120 75
      vertex 0 -120 50
    endloop
  endfacet
  facet normal -0 -1 0
    outer loop
      vertex 8 -120 75
      vertex 0 -120 50
      vertex 8 -120 50
    endloop
  endfacet
  facet normal 0 -1 -0
    outer loop
      vertex 8 -120 100
      vertex 0 -120 100
      vertex 0 -120 75
    endloop
  endfacet
  facet normal -0 -1 0
    outer loop
      vertex 8 -120 100
      vertex 0 -120 75
      vertex 8 -120 75
    endloop
  endfacet
  facet normal 0 -1 -0
    outer loop
      vertex 8 -120 50
      vertex 0 -120 50
      vertex 0 -120 25
    endloop
  endfacet
  facet normal -0 -1 0
    outer loop
      vertex 8 -120 50
      vertex 0 -120 25
      vertex 8 -120 25
    endloop
  endfacet
  facet normal -0 0 1
    outer loop
      vertex 4 13 0
      vertex 1.9600000381469727 13 0
      vertex 1.9600000381469727 7.9000000953674316 0
    endloop
  endfacet
  facet normal 0 0 1
    outer loop
      vertex 4 13 0
      vertex 1.9600000381469727 7.9000000953674316 0
      vertex 4 7.9000000953674316 0
    endloop
  endfacet
  facet normal -0 0 1
    outer loop
      vertex 1.9600000381469727 7.9000000953674316 0
      vertex 0.93999999761581421 7.9000000953674316 0
      vertex 0.93999999761581421 5.3499999046325684 0
    endloop
  endfacet
  facet normal 0 0 1
    outer loop
      vertex 1.9600000381469727 7.9000000953674316 0
      vertex 0.93999999761581421 5.3499999046325684 0
      vertex 1.9600000381469727 5.3499999046325684 0
    endloop
  endfacet
  facet normal 0 0 1
    outer loop
      vertex 0.93999999761581421 5.3499999046325684 0
      vertex 0 3 0
      vertex 1 3 0
    endloop
  endfacet
  facet normal -0 0 1
    outer loop
      vertex 1.9600000381469727 5.3499999046325684 0
      vertex 0.93999999761581421 5.3499999046325684 0
      vertex 1 3 0
    endloop
  endfacet
  facet normal -0 0 1
    outer loop
      vertex 0.93999999761581421 7.9000000953674316 0
      vertex 0 3 0
      vertex 0.93999999761581421 5.3499999046325684 0
    endloop
  endfacet
  facet normal 0 0 1
    outer loop
      vertex 0 13 0
      vertex 1.9600000381469727 13 0
      vertex 0 23 0
    endloop
  endfacet
  facet normal -0 0 1
    outer loop
      vertex 1.9600000381469727 13 0
      vertex 0 13 0
      vertex 0.93999999761581421 7.9000000953674316 0
    endloop
  endfacet
  facet normal 0 0 1
    outer loop
      vertex 1.9600000381469727 13 0
      vertex 0.93999999761581421 7.9000000953674316 0
      vertex 1.9600000381469727 7.9000000953674316 0
    endloop
  endfacet
  facet normal -0 0 1
    outer loop
      vertex 0.93999999761581421 7.9000000953674316 0
      vertex 0 13 0
      vertex 0 3 0
    endloop
  endfacet
  facet normal 0 -0 1
    outer loop
      vertex 1.9600000381469727 5.3499999046325684 0
      vertex 1 3 0
      vertex 8 7.0414519309997559 0
    endloop
  endfacet
  facet normal 0 0 1
    outer loop
      vertex 1.9600000381469727 7.9000000953674316 0
      vertex 1.9600000381469727 5.3499999046325684 0
      vertex 4 7.9000000953674316 0
    endloop
  endfacet
  facet normal 0 -0 1
    outer loop
      vertex 8 7.0414519309997559 0
      vertex 4 7.9000000953674316 0
      vertex 1.9600000381469727 5.3499999046325684 0
    endloop
  endfacet
  facet normal 0 0 1
    outer loop
      vertex 4 13 0
      vertex 4 7.9000000953674316 0
      vertex 8 7.0414519309997559 0
    endloop
  endfacet
  facet normal 0 -0 1
    outer loop
      vertex 4 13 0
      vertex 8 7.0414519309997559 0
      vertex 8 15.020726203918457 0
    endloop
  endfacet
  facet normal -0 0 1
    outer loop
      vertex 8 23 0
      vertex 0 23 0
      vertex 1.9600000381469727 13 0
    endloop
  endfacet
  facet normal 0 0 1
    outer loop
      vertex 8 23 0
      vertex 1.9600000381469727 13 0
      vertex 4 13 0
    endloop
  endfacet
  facet normal -0 0 1
    outer loop
      vertex 4 13 0
      vertex 8 15.020726203918457 0
      vertex 8 23 0
    endloop
  endfacet
  facet normal -0 0 1
    outer loop
      vertex 1.9600000381469727 -2.3499999046325684 0
      vertex 0.93999999761581421 -2.3499999046325684 0
      vertex 0.93999999761581421 -4.9000000953674316 0
    endloop
  endfacet
  facet normal 0 0 1
    outer loop
      vertex 1.9600000381469727 -2.3499999046325684 0
      vertex 0.93999999761581421 -4.9000000953674316 0
      vertex 1.9600000381469727 -4.9000000953674316 0
    endloop
  endfacet
  facet normal -0 0 1
    outer loop
      vertex 4 -4.9000000953674316 0
      vertex 1.9600000381469727 -4.9000000953674316 0
      vertex 1.9600000381469727 -10 0
    endloop
  endfacet
  facet normal 0 0 1
    outer loop
      vertex 4 -4.9000000953674316 0
      vertex 1.9600000381469727 -10 0
      vertex 4 -10 0
    endloop
  endfacet
  facet normal 0 0 1
    outer loop
      vertex 0 -10 0
      vertex 0 -20 0
      vertex 1.9600000381469727 -10 0
    endloop
  endfacet
  facet normal -0 0 1
    outer loop
      vertex 4 -10 0
      vertex 1.9600000381469727 -10 0
      vertex 0 -20 0
    endloop
  endfacet
  facet normal 0 0 1
    outer loop
      vertex 0.93999999761581421 -4.9000000953674316 0
      vertex 0 -10 0
      vertex 1.9600000381469727 -10 0
    endloop
  endfacet
  facet normal 0 0 1
    outer loop
      vertex 0.93999999761581421 -2.3499999046325684 0
      vertex 0 0 0
      vertex 0.93999999761581421 -4.9000000953674316 0
    endloop
  endfacet
  facet normal -0 0 1
    outer loop
      vertex 0 -10 0
      vertex 0.93999999761581421 -4.9000000953674316 0
      vertex 0 0 0
    endloop
  endfacet
  facet normal 0 0 1
    outer loop
      vertex 0 0 0
      vertex 0.93999999761581421 -2.3499999046325684 0
      vertex 1 0 0
    endloop
  endfacet
  facet normal 0 0 1
    outer loop
      vertex 1 0 0
      vertex 0.93999999761581421 -2.3499999046325684 0
      vertex 1.9600000381469727 -2.3499999046325684 0
    endloop
  endfacet
  facet normal -0 -0 1
    outer loop
      vertex 1.9600000381469727 -10 0
      vertex 1.9600000381469727 -4.9000000953674316 0
      vertex 0.93999999761581421 -4.9000000953674316 0
    endloop
  endfacet
  facet normal -0 0 1
    outer loop
      vertex 8 -12.020726203918457 0
      vertex 4 -10 0
      vertex 8 -20 0
    endloop
  endfacet
  facet normal 0 -0 1
    outer loop
      vertex 8 -4.0414519309997559 0
      vertex 4 -10 0
      vertex 8 -12.020726203918457 0
    endloop
  endfacet
  facet normal -0 -0 1
    outer loop
      vertex 4 -4.9000000953674316 0
      vertex 1.9600000381469727 -2.3499999046325684 0
      vertex 1.9600000381469727 -4.9000000953674316 0
    endloop
  endfacet
  facet normal 0 0 1
    outer loop
      vertex 1.9600000381469727 -2.3499999046325684 0
      vertex 4 -4.9000000953674316 0
      vertex 8 -4.0414519309997559 0
    endloop
  endfacet
  facet normal -0 0 1
    outer loop
      vertex 4 -10 0
      vertex 8 -4.0414519309997559 0
      vertex 4 -4.9000000953674316 0
    endloop
  endfacet
  facet normal 0 0 1
    outer loop
      vertex 1 0 0
      vertex 1.9600000381469727 -2.3499999046325684 0
      vertex 8 -4.0414519309997559 0
    endloop
  endfacet
  facet normal -0 -0 1
    outer loop
      vertex 8 -20 0
      vertex 4 -10 0
      vertex 0 -20 0
    endloop
  endfacet
endsolid OBJECT
